<svg width="51" height="57" viewBox="0 0 51 57" fill="none" xmlns="http://www.w3.org/2000/svg">
<path d="M25.5 8.5V0H0L3.5 50L25 57V48.5L11.5 44L11 37H17.5V39L25 41.5V30H10.5L9 8.5H25.5Z" fill="#FF7816"/>
<path d="M25.5 23.5V15H16L16.5 23.5H25.5Z" fill="#FF7816"/>
<path d="M33 30H25V41.5L32.5 39L33 30Z" fill="#FF4B00"/>
<path d="M41.5 8.5H25V15H41L41.5 8.5Z" fill="#E2E2E7"/>
<path d="M46.5 50L50.5 0H25V8.5H41.5L41 15H25V23.5H40.5L39 43.5L25 48.5V57L46.5 50Z" fill="#FF4B00"/>
<path d="M25 30V23.5H40.5L39 43.5L25 48.5V41.5L32.5 39L33 30H25Z" fill="#D9D9D9"/>
<path d="M9 8.5H25V15H16L16.5 23.5H25V30H10.5L9 8.5Z" fill="#ECECF1"/>
<path d="M17.5 37H11L11.5 44L25 48.5V41.5L17.5 39V37Z" fill="#ECECF1"/>
</svg>
