<svg width="56" height="60" viewBox="0 0 56 60" fill="none" xmlns="http://www.w3.org/2000/svg">
<path d="M53.9507 0.976059C53.7075 0.711099 53.3657 0.560059 53.006 0.560059H2.99386C2.63418 0.560059 2.29242 0.711099 2.04922 0.976059C1.80602 1.24102 1.68698 1.59686 1.71898 1.95398L6.22458 52.4205C6.27194 52.9479 6.6393 53.3921 7.14874 53.538L27.6415 59.3914C27.7555 59.4234 27.8745 59.4401 27.9923 59.4401C28.11 59.4401 28.2291 59.4234 28.343 59.3914L48.8537 53.538C49.3631 53.3921 49.7305 52.9479 49.7779 52.4205L54.2809 1.95398C54.3129 1.59686 54.1926 1.24102 53.9507 0.976059ZM11.3599 35.1252L20.3199 37.6109V12.0801H25.4399V45.3601L11.3599 41.4548V35.1252ZM44.7091 26.1601L43.3599 41.8401L30.5599 45.3601V39.4708L39.1999 37.0964L39.5199 32.2964L30.5599 33.8401V12.0801H45.9199L45.4783 17.2001H35.6799V27.4401L44.7091 26.1601Z" fill="#D4B830"/>
<path d="M47.9237 5H28V54L45.0847 49.199C45.49 49.0851 45.7806 48.7296 45.8115 48.3097L48.921 6.07342C48.9636 5.49378 48.5049 5 47.9237 5Z" fill="#FDD83C"/>
<path d="M25.4399 12.0801H20.3199V37.6801L11.3599 35.1201V41.5201L25.4399 45.3601V12.0801Z" fill="black" stroke="black"/>
<path d="M15.8398 12.0801H25.4398V17.2001H15.8398V12.0801Z" fill="black" stroke="black"/>
<path d="M45.9201 11.4398H30.5601V33.8398L39.5201 31.9198V37.0398L30.5601 39.5998V45.3598L43.3601 42.1598L44.6401 26.1598L35.6801 27.4398V17.1998H45.2801L45.9201 11.4398Z" fill="black"/>
<path d="M30.5601 11.4398H45.9201L45.2801 17.1998H35.6801V27.4398L44.6401 26.1598L43.3601 42.1598L30.5601 45.3598V39.5998L39.5201 37.0398V31.9198L30.5601 33.8398V10.7998" stroke="black"/>
</svg>
