<svg width="20" height="20" viewBox="0 0 20 20" fill="none" xmlns="http://www.w3.org/2000/svg">
<path d="M9.23828 0.0234375C8.57031 0.078125 7.14844 0.359375 7.14844 0.441406C7.14844 0.460938 7.27734 0.628906 7.43359 0.8125C8.73047 2.33984 10.3672 4.82812 11.2539 6.60938C11.3945 6.89453 11.5273 7.10938 11.5586 7.10938C11.6641 7.10938 12.4141 6.86328 13.0078 6.62891C14.4883 6.05078 16.0312 5.14453 17.4141 4.03516C17.7305 3.78125 17.7695 3.73828 17.7344 3.67188C17.6523 3.52344 16.7305 2.60156 16.3398 2.27734C14.9297 1.11719 13.2695 0.382812 11.4062 0.0976562C11.0078 0.0390625 9.64844 -0.0078125 9.23828 0.0234375Z" fill="white"/>
<path d="M5.40234 1.12893C3.53125 2.1055 2.00391 3.65628 1.0625 5.53128C0.898438 5.8594 0.664062 6.38675 0.664062 6.43362C0.664062 6.45706 0.964844 6.57034 1.62109 6.793C2.94141 7.24612 4.19141 7.50784 5.72266 7.66018C6.4375 7.7305 8.08203 7.72268 8.80859 7.64065C9.43359 7.57425 10.3086 7.44143 10.3398 7.40628C10.3789 7.36722 9.50781 5.793 8.98438 4.96097C8.37891 3.99612 7.62109 2.9219 6.97656 2.1094C6.5 1.51175 5.97656 0.882841 5.94141 0.871122C5.92969 0.86331 5.6875 0.980497 5.40234 1.12893Z" fill="white"/>
<path d="M17.8902 5.14439C16.2145 6.4608 14.4059 7.44517 12.5582 8.05064C12.2809 8.14048 12.0465 8.21861 12.0387 8.22252C12.0348 8.22642 12.1441 8.50767 12.2809 8.85142C12.4176 9.19127 12.5856 9.6522 12.6598 9.87095L12.7887 10.2733L13.5348 10.2499C15.2535 10.1913 17.1246 10.4569 19.2379 11.0545C19.6012 11.16 19.9059 11.2381 19.9098 11.2342C19.9176 11.2264 19.941 11.0311 19.9645 10.7967C20.0191 10.2694 19.9879 9.20298 19.8981 8.59361C19.816 8.0272 19.5856 7.0897 19.3981 6.58189C19.2457 6.17173 18.6402 4.92173 18.5231 4.78111C18.4566 4.69908 18.4527 4.70298 17.8902 5.14439Z" fill="white"/>
<path d="M0.202947 8.01562C0.0466966 8.82031 0.0232591 9.07422 0.0232591 9.98047C0.0193529 10.9219 0.0506029 11.2305 0.218572 12.0703C0.515447 13.5234 1.24592 15.0508 2.2381 16.2891C2.58185 16.7148 3.60138 17.7344 3.68732 17.7344C3.71467 17.7344 3.76545 17.6328 3.80451 17.5078C4.28888 15.9648 5.3006 14.2812 6.43732 13.1406C7.7381 11.832 9.43732 10.9062 11.2303 10.5312C11.4022 10.4922 11.5623 10.457 11.5897 10.4492C11.6365 10.4336 11.4334 9.83594 11.0936 9.01172C10.8944 8.52344 10.8826 8.51172 10.785 8.53516C10.5623 8.58984 9.85138 8.71094 9.4217 8.76562C7.68341 8.98828 5.71076 8.93359 3.96467 8.61328C2.8631 8.41406 1.80451 8.12109 0.753728 7.73047C0.527165 7.64844 0.327947 7.57812 0.312322 7.57812C0.296697 7.57812 0.249822 7.77734 0.202947 8.01562Z" fill="white"/>
<path d="M13.2735 11.4297C13.1446 11.4531 13.1446 11.4492 13.2383 11.8281C13.5235 12.9609 13.6719 14.0938 13.6993 15.3906C13.7305 16.8047 13.6094 17.9102 13.3047 19.0898C13.2539 19.2891 13.2266 19.4531 13.2461 19.4531C13.3399 19.4531 14.1328 19.1094 14.5938 18.8711C16.7266 17.7656 18.4063 15.9062 19.2969 13.6719C19.4493 13.293 19.6875 12.5391 19.6875 12.4414C19.6875 12.4141 19.6211 12.375 19.543 12.3555C19.461 12.332 19.1055 12.2344 18.75 12.1367C17.6133 11.8203 16.6446 11.6289 15.586 11.5039C15.0664 11.4453 13.4805 11.3945 13.2735 11.4297Z" fill="white"/>
<path d="M11.3866 11.6993C8.24599 12.4337 5.98817 14.629 4.86317 18.0392C4.6913 18.5626 4.6327 18.4689 5.39052 18.8634C6.46864 19.422 7.51552 19.7501 8.76942 19.9298C9.3202 20.0079 10.7382 19.9923 11.3593 19.9064C11.8163 19.8439 11.8866 19.8243 11.9179 19.7501C11.9882 19.5821 12.3046 18.2462 12.3788 17.7931C12.5155 16.9728 12.5507 16.3907 12.5272 15.34C12.4999 14.1095 12.3983 13.336 12.1054 12.0978C11.9647 11.5196 12.0233 11.5509 11.3866 11.6993Z" fill="white"/>
</svg>
