<svg width="20" height="20" viewBox="0 0 20 20" fill="none" xmlns="http://www.w3.org/2000/svg">
<path d="M3.32292 0.201622C3.20833 0.283352 2.99479 0.937199 2.91667 1.4372C2.82812 1.97085 2.875 2.71124 3.02083 3.21124L3.13542 3.60547L2.94792 3.80258C2.52083 4.23528 2.10417 4.96605 1.89062 5.65835C1.78646 6.00451 1.75521 6.22566 1.73438 6.85547C1.625 9.90835 2.88542 11.8987 5.49479 12.8122C5.97917 12.9805 6.94271 13.1968 7.55208 13.2689C7.82292 13.3026 8.05729 13.3362 8.0625 13.3459C8.07292 13.3507 7.98958 13.4709 7.875 13.6151C7.59896 13.9468 7.41667 14.317 7.3125 14.7449L7.22917 15.0862L6.78125 15.2257C6.375 15.3459 6.26042 15.3603 5.625 15.3603C4.97396 15.3603 4.89583 15.3459 4.57812 15.2257C3.96354 14.9853 3.66146 14.716 2.90625 13.7353C2.625 13.3699 2.10417 12.9901 1.66667 12.8314C1.27604 12.692 0.697917 12.6535 0.479167 12.7593C0.385417 12.8026 0.3125 12.8747 0.3125 12.918C0.3125 13.0141 0.666667 13.3314 1.08854 13.6055C1.54688 13.9035 1.9375 14.3795 2.32292 15.1199C2.70833 15.8603 2.77604 15.9516 3.13542 16.2882C3.98438 17.0814 5.29167 17.3507 6.99479 17.0862L7.1875 17.0526V18.2497C7.1875 19.6007 7.1875 19.6007 6.80208 19.7641C6.58854 19.8507 6.60417 19.8555 9.01042 19.8555C10.3438 19.8555 12.151 19.841 13.0365 19.8218C14.5052 19.793 14.625 19.7882 14.4792 19.7209C14.1667 19.5814 14.1667 19.5862 14.1667 17.2834C14.1667 14.9516 14.1458 14.7305 13.8281 14.1055C13.7344 13.918 13.5729 13.6728 13.4635 13.5622C13.3542 13.4516 13.276 13.3555 13.2865 13.3459C13.2969 13.3362 13.5781 13.293 13.9062 13.2497C15.6719 12.9997 16.9323 12.5093 17.849 11.7112C18.9323 10.7689 19.4635 9.61989 19.6406 7.86028C19.8021 6.18239 19.375 4.77374 18.3854 3.73047L18.2344 3.57662L18.3438 3.26412C18.4167 3.04297 18.4583 2.77855 18.474 2.32662C18.5052 1.6247 18.4583 1.25931 18.2448 0.615084C18.1146 0.211237 18.099 0.192007 17.9375 0.16316C17.3542 0.0621986 16.0156 0.49489 14.7812 1.18239L14.2188 1.49489L13.6354 1.3747C11.6562 0.966045 9.67188 0.97566 7.61979 1.39874L7.14062 1.49489L6.91667 1.35547C6.58854 1.15355 5.92188 0.817007 5.43229 0.610275C4.60938 0.26893 3.52083 0.0525837 3.32292 0.201622Z" fill="white"/>
</svg>
