<svg width="20" height="20" viewBox="0 0 20 20" fill="none" xmlns="http://www.w3.org/2000/svg">
<g clip-path="url(#clip0_411_436)">
<path d="M4.74609 0.0585961C2.51953 0.371096 0.726562 1.97266 0.179687 4.14063C0.125 4.34375 0.0664062 4.66797 0.0429687 4.86328C-0.015625 5.34766 -0.015625 14.6523 0.0429687 15.1367C0.3125 17.4141 1.93359 19.2656 4.14062 19.8203C4.34375 19.875 4.67187 19.9336 4.86328 19.957C5.34766 20.0156 14.6523 20.0156 15.1367 19.957C17.1875 19.7148 18.9023 18.375 19.6484 16.4375C19.7695 16.1211 19.9102 15.5273 19.957 15.1367C20.0156 14.6523 20.0156 5.34766 19.957 4.86328C19.7148 2.8125 18.375 1.09766 16.4375 0.351565C16.1211 0.230471 15.5273 0.0898461 15.1367 0.0429711C14.6016 -0.0234351 5.21094 -0.00781011 4.74609 0.0585961ZM16.3125 2.60547C16.8164 2.77344 17.2227 3.17969 17.3945 3.6875C17.4766 3.92969 17.4805 4.40625 17.4023 4.66406C17.082 5.72266 15.8203 6.17578 14.9023 5.5625C14.3633 5.20703 14.0781 4.57031 14.1758 3.94922C14.2773 3.32422 14.7031 2.8125 15.2852 2.61328C15.5508 2.52344 16.0547 2.51563 16.3125 2.60547ZM10.8594 4.58985C12.0195 4.78125 13.043 5.30469 13.8672 6.13281C14.918 7.17969 15.4687 8.51172 15.4687 10C15.4687 11.4883 14.918 12.8203 13.8672 13.8672C12.8203 14.918 11.4883 15.4688 10 15.4688C8.51172 15.4688 7.17969 14.918 6.13281 13.8672C5.08203 12.8203 4.53125 11.4883 4.53125 10C4.53125 8.51172 5.08203 7.17969 6.13281 6.13281C6.94141 5.32031 7.96875 4.78906 9.10156 4.58985C9.50391 4.52344 10.4531 4.51953 10.8594 4.58985Z" fill="white"/>
<path d="M15.5822 3.76919C15.3556 3.89028 15.2697 4.22231 15.4064 4.43325C15.672 4.8395 16.2892 4.65981 16.2892 4.17935C16.2892 3.82778 15.8908 3.60122 15.5822 3.76919Z" fill="white"/>
<path d="M9.24219 5.76582C7.20703 6.13301 5.70312 7.92989 5.70312 10.0002C5.70312 12.6525 8.12109 14.6916 10.7266 14.2385C13.5898 13.7385 15.1445 10.6096 13.8164 8.02754C12.957 6.36739 11.0742 5.43379 9.24219 5.76582Z" fill="white"/>
</g>
<defs>
<clipPath id="clip0_411_436">
<rect width="20" height="20" fill="white"/>
</clipPath>
</defs>
</svg>
