<svg width="24" height="24" viewBox="0 0 24 24" fill="none" xmlns="http://www.w3.org/2000/svg">
<path d="M20.9597 0.240234H3.03975C1.49415 0.240234 0.239746 1.49463 0.239746 3.04023V20.9602C0.239746 22.5058 1.49415 23.7602 3.03975 23.7602H20.9597C22.5053 23.7602 23.7597 22.5058 23.7597 20.9602V3.04023C23.7597 1.49463 22.5053 0.240234 20.9597 0.240234ZM7.51975 9.20023V19.8402H4.15975V9.20023H7.51975ZM4.15975 6.10343C4.15975 5.31943 4.83175 4.72023 5.83975 4.72023C6.84775 4.72023 7.48055 5.31943 7.51975 6.10343C7.51975 6.88743 6.89255 7.52023 5.83975 7.52023C4.83175 7.52023 4.15975 6.88743 4.15975 6.10343ZM19.8397 19.8402H16.4797C16.4797 19.8402 16.4797 14.6546 16.4797 14.2402C16.4797 13.1202 15.9197 12.0002 14.5197 11.9778H14.4749C13.1197 11.9778 12.5597 13.1314 12.5597 14.2402C12.5597 14.7498 12.5597 19.8402 12.5597 19.8402H9.19975V9.20023H12.5597V10.6338C12.5597 10.6338 13.6405 9.20023 15.8133 9.20023C18.0365 9.20023 19.8397 10.729 19.8397 13.8258V19.8402Z" fill="white"/>
</svg>
