<svg width="20" height="20" viewBox="0 0 20 20" fill="none" xmlns="http://www.w3.org/2000/svg">
<path d="M2.41084 0.654818C1.7872 0.774044 1.1177 1.2968 0.833391 1.89293C0.622453 2.34232 0.558255 2.82839 0.654553 3.27319C0.760021 3.74551 0.929688 4.08484 1.21858 4.39667C2.62177 5.90533 5.09341 4.93318 5.09341 2.86966C5.09341 1.42978 3.8232 0.384267 2.41084 0.654818Z" fill="white"/>
<path d="M13.7601 6.65243C13.5446 6.69828 13.2694 6.77165 13.141 6.81292C12.3752 7.07889 11.6049 7.66584 11.1921 8.31241L11.0087 8.58755L10.9996 7.72546L10.9858 6.85878L9.11946 6.84502L7.24854 6.83585V13.1181V19.4004H9.19741H11.1463V16.0391C11.1463 12.6917 11.1692 12.146 11.3114 11.5819C11.481 10.9216 11.8846 10.3943 12.3936 10.1604C12.9163 9.92196 13.7555 9.89445 14.2828 10.0916C14.7918 10.2842 15.1724 10.7565 15.3375 11.4031C15.4751 11.9396 15.5026 12.6825 15.5026 16.0162V19.3545H17.4515H19.4004V15.6952C19.4004 11.9121 19.3729 11.0775 19.2124 10.1833C18.8363 8.05103 17.7541 6.92298 15.7915 6.6295C15.1724 6.53779 14.2507 6.54696 13.7601 6.65243Z" fill="white"/>
<path d="M0.92041 13.1181V19.4004H2.86929H4.81817V13.1181V6.83585H2.86929H0.92041V13.1181Z" fill="white"/>
</svg>
