<svg width="22" height="22" viewBox="0 0 22 22" fill="none" xmlns="http://www.w3.org/2000/svg">
<path d="M1.46112 3.33457C1.33221 3.36895 1.2076 3.41621 1.18182 3.44199C1.13455 3.48926 10.4674 12.8521 10.665 12.9596C10.8154 13.0369 11.1849 13.0369 11.3353 12.9596C11.533 12.8521 20.8658 3.48926 20.8185 3.44199C20.7928 3.41621 20.6596 3.36895 20.5178 3.33457C20.29 3.27441 19.2373 3.26582 10.9787 3.27012C2.93924 3.27012 1.66737 3.27871 1.46112 3.33457Z" fill="white"/>
<path d="M0.0988281 4.60625C0.0257813 4.82109 0.0214844 5.13477 0.0214844 11C0.0214844 16.8652 0.0257813 17.1789 0.0988281 17.3895C0.141797 17.5141 0.193359 17.6172 0.20625 17.6172C0.223438 17.6172 1.72734 16.1262 3.54492 14.3086L6.85352 11L3.54492 7.69141C1.72734 5.86953 0.223438 4.38281 0.20625 4.38281C0.193359 4.38281 0.141797 4.48594 0.0988281 4.60625Z" fill="white"/>
<path d="M18.4551 7.69141L15.1465 11L18.4551 14.3086C20.2727 16.1262 21.7766 17.6172 21.7938 17.6172C21.8066 17.6172 21.8582 17.5141 21.9012 17.3895C21.9742 17.1789 21.9785 16.8652 21.9785 11C21.9785 5.13477 21.9742 4.82109 21.9012 4.60625C21.8582 4.48594 21.8066 4.38281 21.7938 4.38281C21.7766 4.38281 20.2727 5.86953 18.4551 7.69141Z" fill="white"/>
<path d="M4.42572 15.2324C2.29877 17.3594 1.1558 18.5324 1.18158 18.5582C1.20736 18.584 1.34056 18.6313 1.48236 18.6656C1.71009 18.7258 2.76713 18.7344 10.9999 18.7344C19.2327 18.7344 20.2898 18.7258 20.5175 18.6656C20.6593 18.6313 20.7925 18.584 20.8183 18.5582C20.8441 18.5324 19.7011 17.3594 17.5656 15.2238L14.2699 11.9281L13.2472 12.9379C12.3105 13.866 12.1945 13.9648 11.8851 14.1195L11.5413 14.2871H10.9999H10.4585L10.1148 14.1195C9.80541 13.9648 9.68509 13.8617 8.76127 12.9465C8.20697 12.3965 7.74291 11.9453 7.73002 11.9453C7.72142 11.9453 6.2347 13.4234 4.42572 15.2324Z" fill="white"/>
</svg>
