<svg width="26" height="26" viewBox="0 0 26 26" fill="none" xmlns="http://www.w3.org/2000/svg">
<path d="M22.3438 4.0625H3.65625C2.75884 4.0625 2.03125 4.79009 2.03125 5.6875V19.5C2.03125 20.3974 2.75884 21.125 3.65625 21.125H22.3438C23.2412 21.125 23.9688 20.3974 23.9688 19.5V5.6875C23.9688 4.79009 23.2412 4.0625 22.3438 4.0625ZM22.3438 18.5811C22.3251 19.0937 21.8973 19.5 21.3761 19.5H20.1094L20.7188 8.53125L13 13.4062L5.28125 8.9375L5.89062 19.5H4.62394C4.10272 19.5 3.67494 19.0937 3.65625 18.5811V6.61741C3.65625 6.10959 4.07469 5.69806 4.59063 5.69806H5.07812L13 11.7812L20.9219 5.69806H21.4094C21.9253 5.69806 22.3438 6.10959 22.3438 6.61741V18.5811Z" fill="white"/>
</svg>
