<svg width="25" height="18" viewBox="0 0 25 18" fill="none" xmlns="http://www.w3.org/2000/svg">
<path d="M1.66036 0.376301C1.51387 0.414978 1.37227 0.468145 1.34298 0.497148C1.28926 0.550327 11.8948 11.0835 12.1193 11.2045C12.2902 11.2914 12.7101 11.2914 12.881 11.2045C13.1057 11.0835 23.7111 0.550327 23.6574 0.497148C23.6282 0.468145 23.4768 0.414978 23.3157 0.376301C23.0568 0.308621 21.8606 0.298957 12.4758 0.303794C3.34004 0.303794 1.89474 0.313458 1.66036 0.376301Z" fill="white"/>
<path d="M0.112305 1.80703C0.0292969 2.04873 0.0244141 2.40162 0.0244141 9C0.0244141 15.5984 0.0292969 15.9513 0.112305 16.1882C0.161133 16.3284 0.219726 16.4444 0.234375 16.4444C0.253906 16.4444 1.96289 14.767 4.02832 12.7222L6.98456 9.79549C7.42833 9.35618 7.42833 8.64383 6.98456 8.20452L4.02832 5.27784C1.96289 3.22822 0.253906 1.55566 0.234375 1.55566C0.219726 1.55566 0.161133 1.67168 0.112305 1.80703Z" fill="white"/>
<path d="M20.9717 5.27784L18.0154 8.20452C17.5717 8.64383 17.5717 9.35618 18.0154 9.79549L20.9717 12.7222C23.0371 14.767 24.7461 16.4444 24.7657 16.4444C24.7802 16.4444 24.8388 16.3284 24.8877 16.1882C24.9707 15.9513 24.9755 15.5984 24.9755 9C24.9755 2.40162 24.9707 2.04873 24.8877 1.80703C24.8388 1.67168 24.7802 1.55566 24.7657 1.55566C24.7461 1.55566 23.0371 3.22822 20.9717 5.27784Z" fill="white"/>
<path d="M5.02929 13.7606C2.6123 16.1535 1.31347 17.4731 1.34277 17.5022C1.37207 17.5312 1.52343 17.5844 1.68457 17.623C1.94335 17.6907 3.14453 17.7004 12.5 17.7004C21.8554 17.7004 23.0567 17.6907 23.3154 17.623C23.4765 17.5844 23.6279 17.5312 23.6572 17.5022C23.6865 17.4731 22.3877 16.1535 19.961 13.751L16.4554 10.2805C16.3228 10.1493 16.1081 10.1486 15.9747 10.279L15.0537 11.1793C13.9893 12.2234 13.8575 12.3346 13.5059 12.5086L13.1152 12.6972H12.5H11.8847L11.4942 12.5086C11.1426 12.3346 11.0058 12.2186 9.95605 11.189C9.62968 10.8684 9.32691 10.5777 9.1109 10.3719C8.90159 10.1725 8.66804 10.1727 8.46147 10.3748C7.87484 10.9489 6.55262 12.2526 5.02929 13.7606Z" fill="white"/>
</svg>
