<svg width="86" height="86" viewBox="0 0 86 86" fill="none" xmlns="http://www.w3.org/2000/svg">
<circle cx="43" cy="43" r="43" fill="#9084DD"/>
<g clip-path="url(#clip0_411_291)">
<path fill-rule="evenodd" clip-rule="evenodd" d="M60.808 63.5748L65.4867 59.1825L66.8905 64.893L60.808 63.5748ZM44.8872 49.2209L43.1164 47.5581L37.8028 42.5685L36.032 40.9057L25.0704 30.6125L30.3827 25.6229L41.3443 35.9161L43.1164 37.5789L48.4287 42.5685L50.1995 44.2313L64.0327 57.221L58.7204 62.2107L44.8872 49.2209ZM27.3333 62.3776L23.1368 64.0663L20.2214 61.3287L22.021 57.3857L36.0307 44.2313L41.3443 49.2209L27.3333 62.3776ZM19.7492 25.6158C19.2683 25.1631 19.2696 24.4175 19.7567 23.9589L23.2983 20.6332C23.7905 20.1723 24.5769 20.1711 25.0629 20.6262L28.6119 23.9589L23.2983 28.9485L19.7492 25.6158ZM57.9865 23.6155L63.3001 28.6039L50.1995 40.9057L44.8872 35.9149L57.9865 23.6155ZM64.6301 19.8712C64.6338 19.8689 64.6238 19.8689 64.6338 19.8783L67.28 22.3631C67.2875 22.3701 67.2875 22.3666 67.2875 22.3666L63.7434 25.6934L61.0873 23.1992L64.6301 19.8712ZM67.5756 57.221L51.9716 42.5685L62.3809 32.7939L63.3565 33.7111C63.8461 34.171 63.8461 34.9153 63.354 35.3775L58.4398 39.9908C57.9514 40.4506 57.9514 41.195 58.4398 41.6536C58.9295 42.1134 59.7222 42.1134 60.2106 41.6536L65.1248 37.0415C66.595 35.6609 66.5962 33.4266 65.1285 32.0483L64.1517 31.1311L65.0709 30.2667L66.8417 28.6039L65.5142 27.3574L69.0583 24.0294C70.0414 23.1039 70.0314 21.6211 69.0508 20.6991L66.4046 18.2143C65.414 17.2841 63.8361 17.2912 62.8593 18.2084L59.3152 21.5364L57.9865 20.2887L56.2157 21.9515H56.2145V21.9527L43.1164 34.2521L26.8336 18.9634C25.3672 17.5875 22.9953 17.5922 21.5275 18.9704L17.986 22.2961C16.5232 23.6696 16.5145 25.9051 17.9784 27.2786L21.5275 30.6113L21.8657 30.9288L23.2983 32.2753L34.2599 42.5685L19.9083 56.0451L17.2521 61.8661L19.0229 63.5289L16.3667 66.0231L18.1375 67.6859L20.7937 65.1917L22.5657 66.8545L28.7647 64.3603L43.1164 50.8838L56.9483 63.8735L58.7191 65.5363L67.791 67.5025C69.1284 67.7918 69.98 67.0039 69.6682 65.7385L67.5756 57.221Z" fill="white"/>
</g>
<defs>
<clipPath id="clip0_411_291">
<rect width="53.4242" height="50.1667" fill="white" transform="translate(16.3667 17.5186)"/>
</clipPath>
</defs>
</svg>
