<svg width="13" height="17" viewBox="0 0 13 17" fill="none" xmlns="http://www.w3.org/2000/svg">
<path d="M7.07617 2.95898V7.58789C9.05534 7.58789 10.3835 7.83529 11.0605 8.33008C11.7441 8.82487 12.0859 9.79492 12.0859 11.2402C12.0859 12.679 11.7604 13.6654 11.1094 14.1992C10.4648 14.7266 9.26367 14.9902 7.50586 14.9902L7.07617 15V16.5039H5.94336V15H4.97656C4.48177 15 4.07161 14.987 3.74609 14.9609C1.84505 14.8112 0.894531 13.4408 0.894531 10.8496H2.36914V11.0938C2.36914 12.2852 2.53841 13.0306 2.87695 13.3301C3.22201 13.623 4.08789 13.7695 5.47461 13.7695L5.94336 13.7891V8.85742C3.93164 8.85742 2.61003 8.6263 1.97852 8.16406C1.34701 7.70182 1.03125 6.73177 1.03125 5.25391C1.03125 3.82812 1.36003 2.87435 2.01758 2.39258C2.68164 1.91081 3.99023 1.66992 5.94336 1.66992V0.429688H7.07617V1.66992L7.63281 1.67969C9.26693 1.67969 10.3672 1.90755 10.9336 2.36328C11.5 2.8125 11.7832 3.6849 11.7832 4.98047L11.7734 5.40039H10.3281L10.3184 5.06836C10.3184 4.1569 10.1589 3.57747 9.83984 3.33008C9.52734 3.08268 8.79167 2.95898 7.63281 2.95898H7.07617ZM5.94336 2.93945H5.48438C4.22786 2.93945 3.41081 3.07617 3.0332 3.34961C2.6556 3.61654 2.4668 4.19271 2.4668 5.07812C2.4668 6.1263 2.65885 6.80664 3.04297 7.11914C3.43359 7.42513 4.2832 7.57812 5.5918 7.57812L5.94336 7.58789V2.93945ZM7.07617 13.7891C7.31706 13.8281 7.49609 13.8542 7.61328 13.8672C9.63802 14.0299 10.6504 13.1543 10.6504 11.2402C10.6504 10.2637 10.4453 9.62891 10.0352 9.33594C9.63151 9.03646 8.76562 8.88672 7.4375 8.88672L7.07617 8.87695V13.7891Z" fill="#6F6F6F"/>
</svg>
