<svg width="112" height="112" viewBox="0 0 112 112" fill="none" xmlns="http://www.w3.org/2000/svg">
<circle cx="56" cy="56" r="56" fill="#9084DD"/>
<g clip-path="url(#clip0_411_280)">
<path fill-rule="evenodd" clip-rule="evenodd" d="M86.963 83.2368C86.963 84.1433 86.2248 84.8816 85.3269 84.8816H26.6732C25.7672 84.8816 25.0371 84.1499 25.0371 83.2368V47.3149V40.7816V39.1483H29.926H39.7038H44.5926H49.4815H69.9497H86.963V47.3149V83.2368ZM26.6732 26.0816H29.926H39.7038H44.5926H49.4815H85.3269C86.2281 26.0816 86.9549 26.8084 86.9614 27.7149C86.9614 27.7182 86.963 27.7215 86.963 27.7264V35.8816H49.4815H44.5926H39.7038H29.926H25.0371V27.7264C25.0371 27.7215 25.0387 27.7182 25.0387 27.7149C25.0452 26.815 25.7786 26.0816 26.6732 26.0816ZM85.3269 22.8149C88.0272 22.8149 90.2141 25.002 90.2207 27.7149C90.2207 27.7182 90.2223 27.7231 90.2223 27.7264V83.2368C90.2223 85.9498 88.0223 88.1483 85.3269 88.1483H26.6732C23.9697 88.1483 21.7778 85.9547 21.7778 83.2368L21.7786 27.7207C21.7844 25.5867 23.15 23.7933 25.0371 23.1171C25.5504 22.9325 26.0964 22.8149 26.6732 22.8149H85.3269ZM59.259 45.9972C59.0015 46.1752 58.775 46.4055 58.6528 46.7191L58.4214 47.3153L52.9214 61.3979L47.964 74.0987C47.6348 74.9382 48.0488 75.8855 48.888 76.2138C49.7273 76.5421 50.6725 76.1273 51 75.2894L52.9214 70.3632L59.259 54.1295L61.6871 47.9098C61.7637 47.7138 61.7914 47.5129 61.7914 47.3153C61.7914 46.6619 61.4085 46.0445 60.7648 45.793C60.24 45.5872 59.6908 45.6983 59.259 45.9972ZM41.9924 51.0598L39.7044 53.353L33.9339 59.135C33.2967 59.7737 33.2967 60.8076 33.9339 61.4446L39.7044 67.2282L41.9924 69.523C42.6296 70.16 43.6595 70.16 44.2967 69.523C44.9339 68.8844 44.9339 67.8489 44.2967 67.2135L39.7044 62.6092L37.3903 60.2898L39.7044 57.9721L44.2967 53.3694C44.9339 52.7307 44.9339 51.6985 44.2967 51.0598C43.6595 50.4212 42.6296 50.4212 41.9924 51.0598ZM67.8849 51.0598C67.2478 51.6985 67.2478 52.7307 67.8849 53.3694L69.9497 55.4388L74.7897 60.2898L69.9497 65.1441L67.8849 67.2135C67.2478 67.8489 67.2478 68.8844 67.8849 69.523C68.4504 70.0882 69.3141 70.1241 69.9497 69.6815C70.0279 69.6276 70.1175 69.5949 70.1892 69.523L78.2478 61.4446C78.8849 60.8076 78.8849 59.7737 78.2478 59.135L70.1892 51.0598C70.1175 50.9896 70.0279 50.9553 69.9497 50.8998C69.3141 50.4604 68.4504 50.4914 67.8849 51.0598ZM29.926 29.3479C29.0248 29.3479 28.2964 30.078 28.2964 30.9813C28.2964 31.8845 29.0248 32.6146 29.926 32.6146C30.8272 32.6146 31.5556 31.8845 31.5556 30.9813C31.5556 30.078 30.8272 29.3479 29.926 29.3479ZM34.8149 29.3479C33.9137 29.3479 33.1852 30.078 33.1852 30.9813C33.1852 31.8845 33.9137 32.6146 34.8149 32.6146C35.7161 32.6146 36.4445 31.8845 36.4445 30.9813C36.4445 30.078 35.7161 29.3479 34.8149 29.3479ZM39.7038 29.3479C38.8026 29.3479 38.0741 30.078 38.0741 30.9813C38.0741 31.8845 38.8026 32.6146 39.7038 32.6146C40.6049 32.6146 41.3334 31.8845 41.3334 30.9813C41.3334 30.078 40.6049 29.3479 39.7038 29.3479Z" fill="white"/>
</g>
<defs>
<clipPath id="clip0_411_280">
<rect width="68.4445" height="65.3333" fill="white" transform="translate(21.7778 22.8149)"/>
</clipPath>
</defs>
</svg>
