<svg width="50" height="67" viewBox="0 0 50 67" fill="none" xmlns="http://www.w3.org/2000/svg">
<path d="M47.5 36C46.8195 29.3813 44.2446 28.4401 38 28.5V6.47809C38 4.92992 37.2263 3.48417 35.9381 2.6254C34.4492 1.63283 32.5217 1.58696 30.9873 2.50759L30.8611 2.58337C29.3963 3.46224 28.5 5.04521 28.5 6.75344V22.5C27.5 17 23.8609 14.3817 19 19.5C15.5 16.5 13.5843 17.504 11.5 21V11.6478C11.5 10.0136 10.614 8.50777 9.18539 7.71411C7.82629 6.95905 6.16202 6.96555 4.80292 7.7206C3.38501 8.50833 2.48151 9.99822 2.45148 11.62L2 36C2.3748 44.4297 3.54131 47.8945 6.95096 50.9052C8.17139 51.9828 9 53.4689 9 55.097V63C9 64.1046 9.89543 65 11 65H36C37.1046 65 38 64.1046 38 63V56.4873C38 54.9207 38.7476 53.4574 39.9541 52.458C46.1021 47.3651 47.2863 43.6544 47.5 36Z" stroke="white" stroke-width="3"/>
<path d="M11.5 32.6469V23.3428C11.5 20.9211 12.6481 17.9885 15.0665 17.8625C17.7805 17.7212 19 20.9215 19 23.6392V33.0437C19 34.1496 18.5136 35.1996 17.67 35.9147L17.3215 36.2101C16.1066 37.24 14.3224 37.2307 13.1183 36.1883C12.0905 35.2986 11.5 34.0063 11.5 32.6469Z" stroke="white" stroke-width="3"/>
<path d="M28.5 28.9999V23.437C28.5 20.0727 26.6069 16.3054 23.2955 16.9C23.1121 16.9329 22.9282 16.9735 22.7437 17.0218C20.1747 17.6936 19 20.5018 19 23.1572V31.3388C19 33.6699 20.0845 35.8684 21.9342 37.2871V37.2871C22.9426 38.0605 24.2005 38.4354 25.4677 38.3402L30 37.9999" stroke="white" stroke-width="3"/>
<path d="M38 38L38.0314 39.4997C38.8535 39.4824 39.5085 38.8065 39.4999 37.9843C39.4913 37.162 38.8223 36.5 38 36.5V38ZM22.0276 47.2134C21.8694 48.0266 22.4003 48.8141 23.2134 48.9724C24.0266 49.1306 24.8141 48.5997 24.9724 47.7866L22.0276 47.2134ZM24.4603 31.8873L23.0948 31.2666L24.4603 31.8873ZM38 27H29.2949V30H38V27ZM23.271 30.8789L23.0948 31.2666L25.8258 32.508L26.0021 32.1203L23.271 30.8789ZM28.3963 39.5H38V36.5H28.3963V39.5ZM37.9686 36.5003C36.2013 36.5374 34.3956 36.5149 32.8038 36.619C31.1837 36.7249 29.5854 36.968 28.1235 37.6119C25.0314 38.9738 23.0662 41.8773 22.0276 47.2134L24.9724 47.7866C25.9181 42.9273 27.5149 41.158 29.3327 40.3574C30.3257 39.9201 31.5193 39.7094 32.9995 39.6126C34.5079 39.514 36.1107 39.5399 38.0314 39.4997L37.9686 36.5003ZM23.458 36.7629C24.5221 38.4656 26.3884 39.5 28.3963 39.5V36.5C27.4228 36.5 26.5179 35.9985 26.0019 35.1729L23.458 36.7629ZM23.0948 31.2666C22.2869 33.0438 22.4233 35.1075 23.458 36.7629L26.0019 35.1729C25.5003 34.3703 25.4342 33.3697 25.8258 32.508L23.0948 31.2666ZM29.2949 27C26.7001 27 24.3447 28.5166 23.271 30.8789L26.0021 32.1203C26.589 30.829 27.8765 30 29.2949 30V27Z" fill="white"/>
</svg>
