<svg width="39" height="47" viewBox="0 0 39 47" fill="none" xmlns="http://www.w3.org/2000/svg">
<path d="M33.2482 26.5276L9.17045 40.9912C5.9989 42.8964 2.163 39.8446 3.30655 36.326L5.87738 28.4157C6.25395 27.2571 7.29387 26.4412 8.50887 26.3512L19.3076 25.5513C19.7609 25.5177 20.1975 25.363 20.571 25.104C22.0051 24.1093 22.0366 21.9969 20.6303 20.9633C20.2196 20.6614 19.7277 20.4899 19.2183 20.471L8.5943 20.0776C7.33637 20.031 6.24131 19.204 5.85224 18.0069L3.27299 10.0707C2.13353 6.56472 5.94094 3.51466 9.11382 5.39174L33.2251 19.656C35.8327 21.1986 35.8453 24.9674 33.2482 26.5276Z" fill="white" stroke="white"/>
</svg>
