<svg width="703" height="404" viewBox="0 0 703 404" fill="none" xmlns="http://www.w3.org/2000/svg">
<path d="M615.964 259.283L614.137 177.969H688.598V142.337H700.475V398.612" stroke="#B6B6F9" stroke-width="4" stroke-dasharray="5 5"/>
<path d="M495.313 24.978H613.273C618.519 24.978 622.773 29.2313 622.773 34.478V113.151C622.773 118.397 618.519 122.651 613.273 122.651H495.313C490.067 122.651 485.813 118.397 485.813 113.151V34.478C485.813 29.2313 490.067 24.978 495.313 24.978Z" stroke="#695CB9"/>
<mask id="path-3-inside-1_423_35" fill="white">
<rect x="34.8911" y="372.574" width="161.933" height="29.3661" rx="3"/>
</mask>
<rect x="34.8911" y="372.574" width="161.933" height="29.3661" rx="3" fill="white" stroke="#695CB9" stroke-width="12" mask="url(#path-3-inside-1_423_35)"/>
<path d="M193.781 373.719H40.0232C38.3427 373.719 36.9805 374.464 36.9805 375.384C36.9805 376.303 38.3427 377.048 40.0232 377.048H193.781C195.462 377.048 196.824 376.303 196.824 375.384C196.824 374.464 195.462 373.719 193.781 373.719Z" fill="#695CB9"/>
<path d="M192.756 381.21H40.0033C38.3338 381.21 36.9805 381.956 36.9805 382.875C36.9805 383.795 38.3338 384.54 40.0033 384.54H192.756C194.426 384.54 195.779 383.795 195.779 382.875C195.779 381.956 194.426 381.21 192.756 381.21Z" fill="#695CB9"/>
<path d="M190.776 389H38.0228C36.3534 389 35 389.745 35 390.665C35 391.584 36.3534 392.33 38.0228 392.33H190.776C192.445 392.33 193.799 391.584 193.799 390.665C193.799 389.745 192.445 389 190.776 389Z" fill="#695CB9"/>
<path d="M69.6094 318.582C69.6094 305.511 80.1896 294.915 93.2409 294.915H190.25C191.577 294.915 192.653 295.992 192.653 297.321V301.046C192.653 302.73 191.353 304.128 189.676 304.247L189.676 332.916C191.353 333.036 192.653 334.433 192.653 336.118V339.842C192.653 341.172 191.577 342.249 190.25 342.249H93.2409C80.1896 342.249 69.6094 331.653 69.6094 318.582Z" fill="#695CB9" stroke="#695CB9" stroke-width="2.08143"/>
<path fill-rule="evenodd" clip-rule="evenodd" d="M191.45 333.925C191.45 334.313 191.135 334.628 190.747 334.628H179.391H92.8562C84.0022 334.628 76.8247 327.444 76.8247 318.582C76.8247 309.72 84.0022 302.537 92.8562 302.537H179.391H190.747C191.135 302.537 191.45 302.851 191.45 303.24" fill="white"/>
<path d="M191.45 333.925C191.45 334.313 191.135 334.628 190.747 334.628H179.391H92.8562C84.0022 334.628 76.8247 327.444 76.8247 318.582C76.8247 309.72 84.0022 302.537 92.8562 302.537H179.391H190.747C191.135 302.537 191.45 302.851 191.45 303.24" stroke="#695CB9" stroke-width="2.08143"/>
<g filter="url(#filter0_d_423_35)">
<path d="M189.272 311.562H88.3861C87.2835 311.562 86.3896 312.308 86.3896 313.227C86.3896 314.147 87.2835 314.892 88.3861 314.892H189.272C190.375 314.892 191.268 314.147 191.268 313.227C191.268 312.308 190.375 311.562 189.272 311.562Z" fill="#695CB9"/>
</g>
<g filter="url(#filter1_d_423_35)">
<path d="M189.272 321.551H88.3861C87.2835 321.551 86.3896 322.296 86.3896 323.216C86.3896 324.135 87.2835 324.88 88.3861 324.88H189.272C190.375 324.88 191.268 324.135 191.268 323.216C191.268 322.296 190.375 321.551 189.272 321.551Z" fill="#695CB9"/>
</g>
<path d="M512.434 164.529C504.034 172.901 497.765 179.024 487.964 187.6L520.124 203.681C523.025 200.286 524.701 198.439 527.815 195.291C536.805 193.626 541.605 192.308 549.488 188.999C551.44 185.515 552.437 183.231 552.984 183.405C557.414 182.802 556.638 182.428 559.975 182.007L566.967 175.715C569.428 174.255 570.357 173.29 571.861 171.52L582.409 155.387C583.139 154.271 582.795 152.772 581.651 152.086C580.809 151.58 579.741 151.652 578.974 152.266L576.755 154.042C575.014 153.394 574.105 153.494 572.56 154.042C571.672 152.867 571.009 153.126 569.064 153.342L557.349 160.502C556.775 160.852 556.278 161.315 555.887 161.862L552.984 165.927C546.238 166.201 540.729 165.724 533.807 164.232C533.032 164.065 532.766 163.103 533.344 162.56C539.422 156.863 543.999 153.69 548.544 150.043C548.707 149.913 548.858 149.768 548.996 149.612C551.573 146.691 548.466 142.285 544.85 143.732L542.165 144.806C541.921 144.904 541.683 145.025 541.46 145.165C532.401 150.849 526.817 154.219 517.159 160.015C516.809 160.226 516.482 160.48 516.194 160.769L512.434 164.529Z" fill="#FFDBAC"/>
<path d="M548.09 172.22L536.904 170.821C530.8 169.647 526.024 173.999 520.125 179.91L529.213 177.114H534.806C537.911 178.035 539.687 178.67 542.497 178.512L548.09 172.22Z" fill="#F4D0A1"/>
<path d="M520.033 179.678C519.905 179.729 519.841 179.874 519.892 180.002C519.942 180.131 520.087 180.194 520.216 180.144L520.033 179.678ZM549.266 188.186C549.203 188.308 549.251 188.459 549.374 188.522C549.497 188.586 549.647 188.537 549.711 188.415L549.266 188.186ZM561.402 165.786L561.18 165.671L561.402 165.786ZM541.189 178.804L541.261 178.565L541.189 178.804ZM543.36 178.152L543.554 178.31L543.36 178.152ZM520.216 180.144C524.247 178.56 527.441 177.68 530.636 177.495C533.831 177.31 537.045 177.82 541.117 179.044L541.261 178.565C537.156 177.331 533.88 176.807 530.607 176.996C527.337 177.185 524.087 178.086 520.033 179.678L520.216 180.144ZM543.554 178.31L556.398 162.546L556.011 162.231L543.166 177.994L543.554 178.31ZM561.18 165.671C559.004 169.863 557.211 173.19 555.37 176.62C553.528 180.051 551.638 183.584 549.266 188.186L549.711 188.415C552.08 183.816 553.969 180.286 555.81 176.857C557.652 173.427 559.446 170.097 561.624 165.902L561.18 165.671ZM560.054 161.866C561.39 162.629 561.888 164.308 561.18 165.671L561.624 165.902C562.456 164.299 561.869 162.327 560.302 161.432L560.054 161.866ZM556.398 162.546C557.287 161.456 558.833 161.168 560.054 161.866L560.302 161.432C558.869 160.613 557.054 160.951 556.011 162.231L556.398 162.546ZM541.117 179.044C542 179.309 542.967 179.03 543.554 178.31L543.166 177.994C542.712 178.552 541.957 178.774 541.261 178.565L541.117 179.044Z" fill="black"/>
<path d="M561.374 165.927L565.569 161.733L571.55 155.153C572.164 154.478 573.119 154.228 573.985 154.517V154.517C575.398 154.988 576 156.655 575.213 157.92L561.316 180.277C560.905 180.938 560.252 181.414 559.496 181.603L552.285 183.406" stroke="black" stroke-width="0.5"/>
<path d="M404.271 238.269H195.199C191.197 238.269 187.953 241.518 187.953 245.526V381.295C187.953 385.303 191.197 388.552 195.199 388.552H404.271C408.273 388.552 411.517 385.303 411.517 381.295V245.526C411.517 241.518 408.273 238.269 404.271 238.269Z" fill="#695CB9" stroke="#695CB9" stroke-width="2.08143"/>
<path fill-rule="evenodd" clip-rule="evenodd" d="M172.85 389.227V395.282C172.85 398.783 175.691 401.632 179.189 401.632H420.895C424.39 401.632 427.234 398.785 427.234 395.282V389.227C427.234 389.062 427.102 388.932 426.933 388.932H173.151C172.981 388.932 172.85 389.062 172.85 389.227Z" fill="#766AC2" stroke="#7467C3" stroke-width="2.08143"/>
<path fill-rule="evenodd" clip-rule="evenodd" d="M317.439 392.262L283.602 392.262C284.952 395.833 288.397 398.309 292.349 398.309H308.692C312.644 398.309 316.089 395.834 317.439 392.262Z" fill="white" stroke="#695CB9" stroke-width="2.08143"/>
<path d="M406.939 246.067C406.939 244.519 405.798 243.264 404.389 243.264H312.413V244.842C312.413 246.499 311.07 247.842 309.413 247.842H294.111C292.455 247.842 291.111 246.499 291.111 244.842V243.264H194.697C193.289 243.264 192.147 244.519 192.147 246.067V381.967C192.147 383.515 193.289 384.77 194.697 384.77H404.389C405.798 384.77 406.939 383.515 406.939 381.967V246.067Z" fill="#B6B6F9" stroke="#695CB9" stroke-width="2.08143"/>
<path d="M205.741 364.032V340.045H285.03V364.032H221.226C221.122 364.032 221.02 364.064 220.935 364.125L208.325 373.132C207.931 373.414 207.407 373.027 207.56 372.567L210.186 364.69C210.294 364.366 210.053 364.032 209.712 364.032H205.741Z" fill="#F4F6FA" stroke="#695CB9"/>
<rect x="213.149" y="346.525" width="30.15" height="2.74091" fill="#695CB9"/>
<rect x="238.389" y="355.37" width="39.9773" height="2.66516" fill="#6B6B6B"/>
<rect x="213.071" y="355.37" width="15.9909" height="2.66516" fill="#6B6B6B"/>
<rect x="251.522" y="346.525" width="26.6516" height="2.66516" fill="#695CB9"/>
<rect x="356.077" y="260.146" width="89.6153" height="6.55127" rx="3.27564" fill="#B8D3F0" stroke="#695CB9"/>
<rect x="356.077" y="272.023" width="89.6153" height="6.55127" rx="3.27564" fill="#B8D3F0" stroke="#695CB9"/>
<rect x="356.077" y="289.382" width="89.6153" height="6.55127" rx="3.27564" fill="#B6B6F9" stroke="#695CB9"/>
<rect x="356.077" y="301.259" width="89.6153" height="6.55127" rx="3.27564" fill="#B6B6F9" stroke="#695CB9"/>
<rect x="356.077" y="334.15" width="89.6153" height="6.55127" rx="3.27564" fill="#B6B6F9" stroke="#695CB9"/>
<rect x="356.077" y="322.273" width="89.6153" height="6.55127" rx="3.27564" fill="#B6B6F9" stroke="#695CB9"/>
<rect x="356.077" y="354.25" width="89.6153" height="6.55127" rx="3.27564" fill="white" stroke="#695CB9"/>
<rect x="356.077" y="365.214" width="89.6153" height="6.55127" rx="3.27564" fill="white" stroke="#695CB9"/>
<path d="M235.48 226.037C241.633 228.894 246.462 231.915 250.966 237.356C246.528 237.274 243.978 237.358 237.775 237.437V247.721C237.775 248.195 237.713 248.67 237.561 249.12C236.963 250.892 236.264 251.796 234.898 252.296C234.061 252.602 233.124 252.492 232.351 252.049C228.558 249.876 225.946 244.798 223.792 240.746C223.997 244.439 224.624 249.034 224.283 253.084C224.131 254.894 222.522 256.127 220.706 256.127C219.98 256.127 219.258 255.943 218.681 255.504C215.052 252.75 213.302 247.767 211.905 242.844L212.404 249.831C212.529 251.576 211.758 253.266 210.358 254.316C210.025 254.566 209.573 254.591 209.217 254.375C206.07 252.457 203.319 250.266 201.42 244.941C201.204 246.983 200.739 248.255 199.832 249.278C198.513 250.765 196.039 250.617 194.739 249.114C193.451 247.623 193.753 246.377 193.028 242.145C192.63 235.172 190.092 229.28 195.125 224.666C205.813 221.309 214.344 221.142 225.738 223.037C229.104 223.597 232.385 224.6 235.48 226.037Z" fill="#FFDBAC"/>
<path d="M210.754 227.494C210.771 227.357 210.674 227.232 210.537 227.214C210.4 227.197 210.275 227.294 210.258 227.431L210.754 227.494ZM217.027 253.961C217.119 254.064 217.277 254.072 217.38 253.98C217.483 253.888 217.491 253.73 217.399 253.627L217.027 253.961ZM223.339 230.989C223.356 230.852 223.258 230.727 223.121 230.71C222.984 230.693 222.859 230.79 222.842 230.927L223.339 230.989ZM229.845 250.332C229.951 250.42 230.109 250.405 230.197 250.299C230.285 250.192 230.27 250.035 230.163 249.947L229.845 250.332ZM199.568 226.796C199.586 226.659 199.49 226.533 199.353 226.515C199.216 226.497 199.09 226.594 199.072 226.73L199.568 226.796ZM201.908 247.04C201.963 247.167 202.11 247.226 202.237 247.171C202.364 247.117 202.422 246.97 202.368 246.843L201.908 247.04ZM210.258 227.431C209.619 232.489 210.331 238.026 211.687 242.838C213.042 247.643 215.049 251.76 217.027 253.961L217.399 253.627C215.494 251.507 213.513 247.474 212.168 242.702C210.825 237.936 210.125 232.468 210.754 227.494L210.258 227.431ZM222.842 230.927C221.759 239.674 226.179 247.306 229.845 250.332L230.163 249.947C226.617 247.019 222.279 239.551 223.339 230.989L222.842 230.927ZM199.072 226.73C198.564 230.568 198.448 233.726 198.873 236.889C199.299 240.052 200.265 243.207 201.908 247.04L202.368 246.843C200.736 243.036 199.786 239.926 199.369 236.822C198.951 233.718 199.063 230.608 199.568 226.796L199.072 226.73Z" fill="black"/>
<path d="M355.777 118.909C365.586 120.825 369.702 123.037 372.557 130.794C396.567 137.213 407.764 143.589 420.426 159.922C421.617 161.458 422.62 163.142 423.451 164.898C434.055 187.311 439.851 201.676 448.763 228.674L486.517 184.628L525.668 205.602L510.287 237.063H244.614C235.93 225.653 230.032 224.483 219.58 222.408L219.445 222.381C225.245 196.306 230.339 184.799 241.119 167.149C236.535 164.317 234.229 161.74 232.976 158.684C230.655 153.021 231 146.34 233.586 140.794C236.656 134.213 242.574 130.773 251.606 125.9C271.398 117.72 283.39 115.27 306.139 114.015L355.777 118.909Z" fill="url(#paint0_linear_423_35)" stroke="#817CEE" stroke-width="0.5"/>
<path d="M399.372 195.084C399.355 194.947 399.23 194.85 399.093 194.867C398.956 194.884 398.858 195.009 398.875 195.146L399.372 195.084ZM398.875 195.146C400.882 211.282 401.909 221.014 403.069 237.082L403.568 237.046C402.407 220.968 401.379 211.227 399.372 195.084L398.875 195.146Z" fill="#2A2A2A"/>
<path d="M441.771 237.063C445.282 232.83 448.005 229.17 452.957 224.479" stroke="#2A2A2A" stroke-width="0.5"/>
<path d="M298.514 162.496C298.647 162.46 298.725 162.322 298.689 162.189C298.652 162.056 298.515 161.978 298.381 162.014L298.514 162.496ZM241.084 167.397C263.633 170.5 276.198 168.625 298.514 162.496L298.381 162.014C276.109 168.131 263.615 169.993 241.152 166.902L241.084 167.397Z" fill="#2A2A2A"/>
<path d="M307.536 120.307C284.562 122.983 261.735 128.258 253.345 137.967C250.403 141.372 251.821 146.28 256.26 147.02C260.378 147.707 265.498 147.574 268.385 147.574C284.625 147.183 294.537 144.331 311.032 137.786" stroke="#2A2A2A" stroke-width="0.5"/>
<path d="M316.553 156.423C316.421 156.463 316.346 156.603 316.386 156.735C316.426 156.867 316.566 156.942 316.698 156.902L316.553 156.423ZM366.321 142.224C366.455 142.193 366.539 142.059 366.508 141.924C366.477 141.79 366.343 141.706 366.208 141.737L366.321 142.224ZM343.938 155.76L343.865 155.999L343.938 155.76ZM316.698 156.902C322.45 155.153 326.847 154.199 331 154.044C335.15 153.89 339.069 154.533 343.865 155.999L344.011 155.521C339.179 154.044 335.202 153.387 330.982 153.545C326.765 153.702 322.32 154.67 316.553 156.423L316.698 156.902ZM345.218 155.591C348.822 151.212 351.823 148.402 355.053 146.421C358.283 144.441 361.756 143.281 366.321 142.224L366.208 141.737C361.621 142.799 358.088 143.974 354.792 145.995C351.497 148.015 348.454 150.872 344.832 155.274L345.218 155.591ZM343.865 155.999C344.355 156.149 344.892 155.987 345.218 155.591L344.832 155.274C344.635 155.513 344.307 155.612 344.011 155.521L343.865 155.999Z" fill="#2A2A2A"/>
<circle cx="336.201" cy="165.052" r="4.64398" stroke="black" stroke-width="0.5"/>
<circle cx="357.875" cy="157.361" r="3.94484" stroke="black" stroke-width="0.5"/>
<path d="M334.104 160.857C335.063 165.441 335.517 169.367 335.502 175.539L336.201 211.895" stroke="#2A2A2A"/>
<rect x="334.104" y="211.895" width="4.19484" height="11.1862" rx="2.09742" fill="#2A2A2A"/>
<path d="M356.477 153.866C357.435 158.449 357.889 162.376 357.875 168.548L358.574 204.903" stroke="#2A2A2A"/>
<rect x="356.477" y="204.903" width="4.19484" height="11.1862" rx="2.09742" fill="#2A2A2A"/>
<path d="M297.296 194.454C297.318 194.318 297.224 194.19 297.088 194.169C296.951 194.148 296.823 194.241 296.802 194.378L297.296 194.454ZM296.802 194.378C294.276 210.715 292.633 219.962 288.417 237.003L288.902 237.124C293.123 220.063 294.768 210.801 297.296 194.454L296.802 194.378Z" fill="#2A2A2A"/>
<path d="M520.774 215.39C503.698 208.047 494.141 203.897 477.427 195.814" stroke="#2A2A2A" stroke-width="0.5"/>
<path d="M306.886 66.6493L308.983 52.6666C325.136 52.6332 339.64 49.2459 357.923 35.8872L363.516 56.8614C364.611 70.5558 367.265 85.3286 363.916 104.513C363.288 108.114 361.567 111.501 358.701 113.771C357.028 115.096 355.344 116.165 353.603 116.987V132.368C338.477 144.851 329.791 142.651 308.284 136.563C305.828 117.538 304.644 107.203 302.691 89.0218C293.353 87.2291 292.328 82.8444 292.204 73.6407C294.945 66.082 298.437 64.9949 306.886 66.6493Z" fill="#FFDBAC"/>
<path d="M308.983 52.6666L308.982 52.1666L308.553 52.1674L308.489 52.5924L308.983 52.6666ZM306.886 66.6493L306.79 67.14L307.303 67.2405L307.38 66.7235L306.886 66.6493ZM357.923 35.8872L358.406 35.7584L358.218 35.0525L357.628 35.4835L357.923 35.8872ZM363.516 56.8614L364.015 56.8215L364.011 56.7764L363.999 56.7326L363.516 56.8614ZM363.916 104.513L363.424 104.427L363.424 104.427L363.916 104.513ZM292.204 73.6407L291.734 73.4703L291.703 73.5561L291.704 73.6475L292.204 73.6407ZM302.691 89.0218L303.188 88.9684L303.149 88.6005L302.785 88.5308L302.691 89.0218ZM308.284 136.563L307.788 136.627L307.831 136.955L308.148 137.044L308.284 136.563ZM353.603 132.368L353.921 132.754L354.103 132.604V132.368H353.603ZM358.701 113.771L359.012 114.163L359.012 114.163L358.701 113.771ZM319.046 106.083C318.816 105.931 318.505 105.995 318.354 106.225C318.202 106.456 318.266 106.766 318.497 106.918L319.046 106.083ZM308.489 52.5924L306.392 66.5752L307.38 66.7235L309.478 52.7407L308.489 52.5924ZM308.984 53.1666C325.237 53.133 339.845 49.7156 358.218 36.2909L357.628 35.4835C339.436 48.7763 325.036 52.1334 308.982 52.1666L308.984 53.1666ZM357.44 36.016L363.033 56.9902L363.999 56.7326L358.406 35.7584L357.44 36.016ZM363.018 56.9012C364.117 70.6414 366.758 85.3235 363.424 104.427L364.409 104.599C367.771 85.3337 365.106 70.4702 364.015 56.8215L363.018 56.9012ZM306.982 66.1587C302.755 65.3309 299.629 65.154 297.202 66.2332C294.741 67.3268 293.12 69.6493 291.734 73.4703L292.674 73.8112C294.03 70.0734 295.525 68.073 297.608 67.147C299.723 66.2065 302.568 66.3133 306.79 67.14L306.982 66.1587ZM291.704 73.6475C291.766 78.2322 292.046 81.7613 293.56 84.3621C295.104 87.0124 297.863 88.6041 302.597 89.5128L302.785 88.5308C298.181 87.6469 295.759 86.1498 294.424 83.8588C293.061 81.5181 292.766 78.253 292.704 73.634L291.704 73.6475ZM302.194 89.0752C304.148 107.259 305.331 117.598 307.788 136.627L308.78 136.499C306.324 117.478 305.141 107.147 303.188 88.9684L302.194 89.0752ZM308.148 137.044C318.876 140.081 326.508 142.182 333.355 141.929C340.25 141.675 346.305 139.039 353.921 132.754L353.284 131.983C345.774 138.18 339.923 140.686 333.318 140.93C326.663 141.176 319.199 139.133 308.42 136.082L308.148 137.044ZM358.391 113.379C356.743 114.684 355.091 115.732 353.389 116.535L353.816 117.44C355.597 116.599 357.313 115.508 359.012 114.163L358.391 113.379ZM353.406 116.527C348.22 118.738 342.736 118.178 336.974 116.026C331.203 113.871 325.212 110.14 319.046 106.083L318.497 106.918C324.657 110.972 330.735 114.763 336.624 116.963C342.522 119.166 348.291 119.795 353.799 117.447L353.406 116.527ZM354.103 132.368V116.987H353.103V132.368H354.103ZM363.424 104.427C362.812 107.933 361.142 111.2 358.391 113.379L359.012 114.163C361.992 111.802 363.764 108.295 364.409 104.599L363.424 104.427Z" fill="#F4D0A1"/>
<path d="M290.326 19.8787C291.261 23.2972 291.544 24.7834 291.507 26.0992C303.078 18.222 310.657 14.5643 332.055 13.5146C343.323 13.8608 350.296 18.3116 354.428 23.3026C359.642 29.9237 361.017 41.3438 364.216 59.6578C362.239 52.2575 362.978 53.2436 359.322 43.5776C345.11 54.4071 330.276 52.0349 308.285 52.6665L306.886 66.6492C301.716 64.949 298.64 64.8681 295.035 68.4151C293.508 69.9165 292.458 71.8528 291.949 73.9324C291.028 77.6957 291.538 80.3527 294.302 84.1277C297.036 87.0541 298.744 88.5393 302.691 90.42L303.391 101.606C293.938 94.3867 288.495 88.473 283.815 77.1363C281.852 71.4608 280.938 68.0897 280.319 61.0561C280.359 52.2955 281.083 47.6886 283.815 40.0819C281.319 40.4781 279.874 40.6895 277.135 40.1459C276.966 40.1123 276.861 39.9409 276.908 39.7751C278.014 35.8638 279.437 34.0404 284.514 32.3914C283.416 27.0827 284.641 24.0885 289.517 19.6426C289.789 19.3939 290.228 19.5225 290.326 19.8787Z" fill="black" stroke="black"/>
<path d="M353.728 127.474C336.416 120.843 328.733 115.005 318.072 106.5C335.657 118.554 344.149 120.594 353.728 116.987V127.474Z" fill="#F4D0A1" stroke="#F4D0A1" stroke-width="0.5"/>
<path d="M327.162 64.0309C331.8 60.0275 335.474 58.6203 341.844 58.4378M353.729 57.0422C357.538 55.6783 360.137 56.4273 362.119 58.9585" stroke="black" stroke-linecap="round"/>
<ellipse cx="338.379" cy="68.9445" rx="2.09742" ry="3.4957" transform="rotate(0.513315 338.379 68.9445)" fill="black"/>
<ellipse cx="358.965" cy="67.5431" rx="1.70891" ry="3.4957" transform="rotate(0.513315 358.965 67.5431)" fill="black"/>
<path d="M354.929 84.1544C354.845 84.2636 354.865 84.4206 354.974 84.5051C355.083 84.5895 355.24 84.5694 355.325 84.4602L354.929 84.1544ZM351.982 73.7019L351.857 73.9186L351.982 73.7019ZM350.682 64.0322V71.9219H351.182V64.0322H350.682ZM351.857 73.9186C353.547 74.8898 354.882 75.8532 356.047 76.9822L356.395 76.6231C355.193 75.4584 353.822 74.4713 352.106 73.4851L351.857 73.9186ZM356.846 81.0307C356.371 82.1283 355.81 83.0149 354.929 84.1544L355.325 84.4602C356.222 83.2993 356.808 82.3766 357.305 81.2295L356.846 81.0307ZM356.047 76.9822C357.127 78.0286 357.445 79.6496 356.846 81.0307L357.305 81.2295C357.986 79.6588 357.626 77.8153 356.395 76.6231L356.047 76.9822ZM350.682 71.9219C350.682 72.7541 351.144 73.5085 351.857 73.9186L352.106 73.4851C351.54 73.1596 351.182 72.566 351.182 71.9219H350.682Z" fill="black"/>
<path d="M339.191 89.6959C339.078 89.6165 338.922 89.6436 338.842 89.7566C338.763 89.8695 338.79 90.0254 338.903 90.1049L339.191 89.6959ZM355.145 93.6454C355.283 93.6352 355.387 93.5154 355.376 93.3777C355.366 93.24 355.246 93.1366 355.109 93.1468L355.145 93.6454ZM338.903 90.1049C341.105 91.6536 343.034 92.7027 345.49 93.2803C347.939 93.8564 350.895 93.959 355.145 93.6454L355.109 93.1468C350.878 93.459 347.981 93.3524 345.604 92.7935C343.234 92.236 341.364 91.2244 339.191 89.6959L338.903 90.1049Z" fill="black"/>
<path d="M306.233 70.7513C306.362 70.8005 306.506 70.7357 306.555 70.6067C306.604 70.4777 306.54 70.3332 306.411 70.2841L306.233 70.7513ZM298.313 83.424C298.407 83.5251 298.566 83.5309 298.667 83.4369C298.768 83.3429 298.774 83.1847 298.68 83.0836L298.313 83.424ZM306.411 70.2841C304.05 69.3849 302.396 69.0343 300.987 69.2645C299.569 69.4964 298.444 70.3093 297.126 71.6145L297.478 71.9698C298.775 70.6847 299.807 69.964 301.068 69.758C302.338 69.5503 303.887 69.8577 306.233 70.7513L306.411 70.2841ZM295.939 73.6536C295.34 75.9126 295.265 77.6508 295.685 79.1868C296.106 80.7217 297.012 82.0239 298.313 83.424L298.68 83.0836C297.402 81.7088 296.557 80.4771 296.168 79.0548C295.779 77.6336 295.836 75.9912 296.422 73.7819L295.939 73.6536ZM297.126 71.6145C296.559 72.176 296.145 72.8801 295.939 73.6536L296.422 73.7819C296.604 73.0967 296.972 72.4703 297.478 71.9698L297.126 71.6145Z" fill="black"/>
<path d="M303.977 79.4571C304.101 79.5191 304.251 79.4693 304.313 79.346C304.375 79.2226 304.325 79.0723 304.202 79.0103L303.977 79.4571ZM304.202 79.0103C302.857 78.3349 301.754 77.8251 300.46 77.6509C299.164 77.4763 297.701 77.641 295.628 78.2644L295.772 78.7432C297.808 78.1309 299.195 77.985 300.394 78.1465C301.596 78.3084 302.632 78.7815 303.977 79.4571L304.202 79.0103Z" fill="black"/>
<rect x="382.649" y="198.763" width="274.719" height="160.611" rx="8.5" fill="white" stroke="#695CB9" stroke-width="3"/>
<rect x="397.929" y="235.858" width="106.557" height="67.1224" fill="#B6B6F9"/>
<rect x="509.682" y="313.21" width="47.5028" height="32.4002" stroke="#695CB9" stroke-width="2"/>
<rect x="410.515" y="250.122" width="131.11" height="88.2237" fill="#746FEE"/>
<line x1="410.515" y1="266.277" x2="541.625" y2="266.277" stroke="#A094EB" stroke-width="2"/>
<circle cx="478.52" cy="300.973" r="25.8446" stroke="#A094EB"/>
<line x1="478.633" y1="327.317" x2="478.633" y2="274.628" stroke="#A094EB"/>
<line x1="452.176" y1="301.085" x2="504.865" y2="301.085" stroke="#A094EB"/>
<path d="M492.112 300.972C492.112 308.182 490.548 314.684 488.044 319.365C485.528 324.068 482.138 326.817 478.52 326.817C474.903 326.817 471.513 324.068 468.997 319.365C466.493 314.684 464.929 308.182 464.929 300.972C464.929 293.763 466.493 287.261 468.997 282.58C471.513 277.877 474.903 275.128 478.52 275.128C482.138 275.128 485.528 277.877 488.044 282.58C490.548 287.261 492.112 293.763 492.112 300.972Z" stroke="#A094EB"/>
<path d="M526.592 260.497C526.397 260.692 526.397 261.009 526.592 261.204C526.788 261.399 527.104 261.399 527.299 261.204L526.592 260.497ZM534.192 254.311C534.387 254.116 534.387 253.799 534.192 253.604C533.997 253.409 533.68 253.409 533.485 253.604L534.192 254.311ZM527.299 261.204L534.192 254.311L533.485 253.604L526.592 260.497L527.299 261.204Z" fill="#A094EB"/>
<path d="M527.275 253.444C527.08 253.249 526.763 253.249 526.568 253.444C526.373 253.64 526.373 253.956 526.568 254.151L527.275 253.444ZM533.461 261.044C533.656 261.24 533.973 261.24 534.168 261.044C534.363 260.849 534.363 260.532 534.168 260.337L533.461 261.044ZM526.568 254.151L533.461 261.044L534.168 260.337L527.275 253.444L526.568 254.151Z" fill="#A094EB"/>
<path d="M683.765 380.983C683.765 390.327 677.068 398.889 668.041 398.889C663.491 398.889 659.11 396.74 655.851 393.388C652.592 390.036 650.525 385.551 650.525 380.983C650.525 371.805 657.966 364.364 667.145 364.364C676.324 364.364 683.765 371.805 683.765 380.983ZM654.926 380.983C654.926 384.34 656.276 387.695 658.445 390.214C660.616 392.736 663.676 394.493 667.128 394.493C670.578 394.493 673.646 392.737 675.826 390.216C678.004 387.697 679.364 384.342 679.364 380.983C679.364 374.235 673.894 368.764 667.145 368.764C660.396 368.764 654.926 374.235 654.926 380.983Z" fill="white" stroke="#695CB9" stroke-width="2"/>
<path d="M643.759 351.778C647.096 351.778 649.801 349.07 649.801 345.73C649.801 342.39 647.096 339.683 643.759 339.683C640.422 339.683 637.717 342.39 637.717 345.73C637.717 349.07 640.422 351.778 643.759 351.778Z" fill="white" stroke="#695CB9" stroke-width="2.08143"/>
<path fill-rule="evenodd" clip-rule="evenodd" d="M617.172 344.219C616.505 344.219 615.964 344.76 615.964 345.428V396.228C615.964 399.568 618.667 402.276 622.002 402.276H663.682C667.017 402.276 669.721 399.568 669.721 396.228V345.428C669.721 344.76 669.18 344.219 668.513 344.219H617.172Z" fill="white" stroke="#695CB9" stroke-width="2.08143"/>
<path d="M653.732 360.547H645.266C643.265 360.547 641.643 362.172 641.643 364.176V376.271C641.643 378.275 643.265 379.9 645.266 379.9H653.732C655.733 379.9 657.355 378.275 657.355 376.271V364.176C657.355 362.172 655.733 360.547 653.732 360.547Z" fill="#B8D3F0" stroke="#695CB9" stroke-width="2.08143"/>
<path d="M649.348 344.672V358.43" stroke="#695CB9" stroke-width="2.08143" stroke-linecap="square"/>
<path fill-rule="evenodd" clip-rule="evenodd" d="M500.846 13.2954H624.53V101.404C624.53 104.895 621.704 107.722 618.213 107.722H507.162C503.676 107.722 500.846 104.89 500.846 101.404V13.2954Z" fill="white" stroke="#695CB9" stroke-width="2.08143"/>
<path fill-rule="evenodd" clip-rule="evenodd" d="M500.846 8.31954C500.846 4.82813 503.672 2 507.162 2H618.213C621.702 2 624.53 4.82794 624.53 8.31954V15.1022H500.846V8.31954Z" fill="white" stroke="#695CB9" stroke-width="2.08143"/>
<path d="M510.55 10.5843C511.672 10.5843 512.581 9.67402 512.581 8.55117C512.581 7.42832 511.672 6.51807 510.55 6.51807C509.428 6.51807 508.519 7.42832 508.519 8.55117C508.519 9.67402 509.428 10.5843 510.55 10.5843Z" fill="#695CB9"/>
<path d="M517.321 10.5843C518.443 10.5843 519.353 9.67402 519.353 8.55117C519.353 7.42832 518.443 6.51807 517.321 6.51807C516.199 6.51807 515.29 7.42832 515.29 8.55117C515.29 9.67402 516.199 10.5843 517.321 10.5843Z" fill="#695CB9"/>
<path d="M524.092 10.5843C525.214 10.5843 526.124 9.67402 526.124 8.55117C526.124 7.42832 525.214 6.51807 524.092 6.51807C522.97 6.51807 522.061 7.42832 522.061 8.55117C522.061 9.67402 522.97 10.5843 524.092 10.5843Z" fill="#695CB9"/>
<path d="M577.359 83.0986C589.824 83.0986 599.929 72.9847 599.929 60.5085C599.929 48.0324 589.824 37.9185 577.359 37.9185C564.894 37.9185 554.789 48.0324 554.789 60.5085C554.789 72.9847 564.894 83.0986 577.359 83.0986Z" fill="#B6B6F9" stroke="#695CB9" stroke-width="2.34161"/>
<path fill-rule="evenodd" clip-rule="evenodd" d="M574.875 35.2075V40.6291H580.293V35.2075H574.875Z" fill="white" stroke="#695CB9" stroke-width="2.08143"/>
<path fill-rule="evenodd" clip-rule="evenodd" d="M574.649 80.3882V85.8098H580.067V80.3882H574.649Z" fill="white" stroke="#695CB9" stroke-width="2.08143"/>
<path fill-rule="evenodd" clip-rule="evenodd" d="M552.079 58.0234V63.445H557.497V58.0234H552.079Z" fill="white" stroke="#695CB9" stroke-width="2.08143"/>
<path fill-rule="evenodd" clip-rule="evenodd" d="M596.994 58.0234V63.445H602.412V58.0234H596.994Z" fill="white" stroke="#695CB9" stroke-width="2.08143"/>
<path d="M599.929 40.1768V57.1193" stroke="#695CB9" stroke-width="2.08143" stroke-linecap="square"/>
<path d="M599.929 63.897V80.8395" stroke="#695CB9" stroke-width="2.08143" stroke-linecap="square"/>
<path d="M599.928 42.2107C601.424 42.2107 602.637 40.997 602.637 39.4999C602.637 38.0027 601.424 36.7891 599.928 36.7891C598.432 36.7891 597.22 38.0027 597.22 39.4999C597.22 40.997 598.432 42.2107 599.928 42.2107Z" fill="#695CB9"/>
<path d="M599.928 85.1316C601.424 85.1316 602.637 83.9179 602.637 82.4208C602.637 80.9236 601.424 79.71 599.928 79.71C598.432 79.71 597.22 80.9236 597.22 82.4208C597.22 83.9179 598.432 85.1316 599.928 85.1316Z" fill="#695CB9"/>
<path d="M534.251 33.1743H525.67C524.175 33.1743 522.963 34.388 522.963 35.8851V44.4694C522.963 45.9665 524.175 47.1802 525.67 47.1802H534.251C535.746 47.1802 536.958 45.9665 536.958 44.4694V35.8851C536.958 34.388 535.746 33.1743 534.251 33.1743Z" stroke="#695CB9" stroke-width="2.08143"/>
<path d="M534.251 53.5059H525.67C524.175 53.5059 522.963 54.7195 522.963 56.2167V64.8009C522.963 66.298 524.175 67.5117 525.67 67.5117H534.251C535.746 67.5117 536.958 66.298 536.958 64.8009V56.2167C536.958 54.7195 535.746 53.5059 534.251 53.5059Z" stroke="#695CB9" stroke-width="2.08143"/>
<path d="M534.251 73.8369H525.67C524.175 73.8369 522.963 75.0506 522.963 76.5477V85.1319C522.963 86.6291 524.175 87.8428 525.67 87.8428H534.251C535.746 87.8428 536.958 86.6291 536.958 85.1319V76.5477C536.958 75.0506 535.746 73.8369 534.251 73.8369Z" stroke="#695CB9" stroke-width="2.08143"/>
<mask id="path-93-inside-2_423_35" fill="white">
<rect x="12.0503" y="342.424" width="161.094" height="31.8832" rx="4"/>
</mask>
<rect x="12.0503" y="342.424" width="161.094" height="31.8832" rx="4" fill="#9894ED" stroke="#695CB9" stroke-width="10" mask="url(#path-93-inside-2_423_35)"/>
<path d="M49.8151 364.15C49.4751 364.15 49.1501 364.105 48.8401 364.015C48.5301 363.925 48.2401 363.795 47.9701 363.625C47.7101 363.455 47.4751 363.255 47.2651 363.025C47.0551 362.785 46.8751 362.525 46.7251 362.245L47.7451 361.18C47.9551 361.48 48.1451 361.72 48.3151 361.9C48.4951 362.08 48.6651 362.22 48.8251 362.32C48.9851 362.42 49.1451 362.49 49.3051 362.53C49.4651 362.56 49.6351 362.575 49.8151 362.575C50.1751 362.575 50.4901 362.495 50.7601 362.335C51.0301 362.165 51.2401 361.935 51.3901 361.645C51.5401 361.355 51.6151 361.025 51.6151 360.655V355H49.6951V353.5H54.8551V355H53.2351V360.805C53.2351 361.285 53.1501 361.73 52.9801 362.14C52.8201 362.54 52.5851 362.89 52.2751 363.19C51.9751 363.49 51.6151 363.725 51.1951 363.895C50.7851 364.065 50.3251 364.15 49.8151 364.15ZM54.8462 364L58.9112 353.5H60.5612L64.5962 364H62.8712L60.4712 357.67C60.4412 357.6 60.3812 357.43 60.2912 357.16C60.2112 356.89 60.1162 356.59 60.0062 356.26C59.8962 355.93 59.7962 355.63 59.7062 355.36C59.6162 355.08 59.5562 354.9 59.5262 354.82L59.8712 354.805C59.8112 354.975 59.7362 355.19 59.6462 355.45C59.5662 355.71 59.4762 355.985 59.3762 356.275C59.2862 356.565 59.1962 356.84 59.1062 357.1C59.0162 357.35 58.9412 357.56 58.8812 357.73L56.4962 364H54.8462ZM56.6462 361.39L57.2462 359.83H62.0162L62.7062 361.39H56.6462ZM68.4062 364L64.2062 353.5H66.0512L68.5562 359.875C68.6762 360.185 68.7812 360.465 68.8712 360.715C68.9712 360.965 69.0562 361.195 69.1262 361.405C69.1962 361.605 69.2612 361.795 69.3212 361.975C69.3812 362.155 69.4412 362.335 69.5012 362.515L69.1112 362.53C69.1812 362.29 69.2562 362.04 69.3362 361.78C69.4162 361.52 69.5062 361.235 69.6062 360.925C69.7162 360.615 69.8462 360.265 69.9962 359.875L72.3212 353.5H74.2112L69.9812 364H68.4062ZM73.8159 364L77.8809 353.5H79.5309L83.5659 364H81.8409L79.4409 357.67C79.4109 357.6 79.3509 357.43 79.2609 357.16C79.1809 356.89 79.0859 356.59 78.9759 356.26C78.8659 355.93 78.7659 355.63 78.6759 355.36C78.5859 355.08 78.5259 354.9 78.4959 354.82L78.8409 354.805C78.7809 354.975 78.7059 355.19 78.6159 355.45C78.5359 355.71 78.4459 355.985 78.3459 356.275C78.2559 356.565 78.1659 356.84 78.0759 357.1C77.9859 357.35 77.9109 357.56 77.8509 357.73L75.4659 364H73.8159ZM75.6159 361.39L76.2159 359.83H80.9859L81.6759 361.39H75.6159ZM88.6538 364.15C88.0838 364.15 87.5538 364.075 87.0638 363.925C86.5838 363.775 86.1438 363.55 85.7438 363.25C85.3538 362.94 85.0038 362.56 84.6938 362.11L85.8038 360.835C86.2938 361.535 86.7638 362.02 87.2138 362.29C87.6638 362.56 88.1988 362.695 88.8188 362.695C89.1988 362.695 89.5438 362.635 89.8538 362.515C90.1638 362.395 90.4088 362.23 90.5888 362.02C90.7688 361.81 90.8588 361.57 90.8588 361.3C90.8588 361.12 90.8288 360.95 90.7688 360.79C90.7088 360.63 90.6138 360.485 90.4838 360.355C90.3638 360.225 90.2038 360.105 90.0038 359.995C89.8138 359.885 89.5888 359.79 89.3288 359.71C89.0688 359.62 88.7688 359.545 88.4288 359.485C87.8888 359.375 87.4188 359.23 87.0188 359.05C86.6188 358.87 86.2838 358.645 86.0138 358.375C85.7438 358.105 85.5438 357.8 85.4138 357.46C85.2838 357.11 85.2188 356.72 85.2188 356.29C85.2188 355.87 85.3088 355.48 85.4888 355.12C85.6788 354.76 85.9338 354.45 86.2538 354.19C86.5838 353.92 86.9688 353.715 87.4088 353.575C87.8488 353.425 88.3238 353.35 88.8338 353.35C89.3738 353.35 89.8688 353.42 90.3188 353.56C90.7688 353.7 91.1688 353.91 91.5188 354.19C91.8688 354.46 92.1588 354.795 92.3888 355.195L91.2488 356.32C91.0488 355.99 90.8238 355.715 90.5738 355.495C90.3238 355.265 90.0488 355.095 89.7488 354.985C89.4488 354.865 89.1288 354.805 88.7888 354.805C88.3988 354.805 88.0588 354.865 87.7688 354.985C87.4788 355.105 87.2488 355.275 87.0788 355.495C86.9188 355.705 86.8388 355.955 86.8388 356.245C86.8388 356.455 86.8788 356.65 86.9588 356.83C87.0388 357 87.1588 357.155 87.3188 357.295C87.4888 357.425 87.7138 357.545 87.9938 357.655C88.2738 357.755 88.6088 357.845 88.9988 357.925C89.5488 358.045 90.0388 358.2 90.4688 358.39C90.8988 358.57 91.2638 358.785 91.5638 359.035C91.8638 359.285 92.0888 359.565 92.2388 359.875C92.3988 360.185 92.4788 360.52 92.4788 360.88C92.4788 361.55 92.3238 362.13 92.0138 362.62C91.7038 363.11 91.2638 363.49 90.6938 363.76C90.1238 364.02 89.4438 364.15 88.6538 364.15ZM99.0342 364.15C98.3042 364.15 97.6342 364.02 97.0242 363.76C96.4142 363.5 95.8842 363.13 95.4342 362.65C94.9842 362.16 94.6342 361.585 94.3842 360.925C94.1442 360.265 94.0242 359.54 94.0242 358.75C94.0242 358 94.1542 357.305 94.4142 356.665C94.6842 356.015 95.0542 355.445 95.5242 354.955C95.9942 354.465 96.5392 354.085 97.1592 353.815C97.7792 353.545 98.4492 353.41 99.1692 353.41C99.6792 353.41 100.174 353.49 100.654 353.65C101.144 353.8 101.584 354.015 101.974 354.295C102.374 354.565 102.699 354.875 102.949 355.225L101.869 356.35C101.579 356.06 101.284 355.82 100.984 355.63C100.694 355.43 100.394 355.28 100.084 355.18C99.7842 355.08 99.4792 355.03 99.1692 355.03C98.6792 355.03 98.2192 355.125 97.7892 355.315C97.3692 355.495 96.9992 355.75 96.6792 356.08C96.3692 356.41 96.1242 356.805 95.9442 357.265C95.7642 357.715 95.6742 358.21 95.6742 358.75C95.6742 359.32 95.7592 359.84 95.9292 360.31C96.1092 360.77 96.3592 361.165 96.6792 361.495C96.9992 361.825 97.3792 362.08 97.8192 362.26C98.2692 362.43 98.7642 362.515 99.3042 362.515C99.6342 362.515 99.9592 362.47 100.279 362.38C100.599 362.29 100.899 362.16 101.179 361.99C101.459 361.82 101.714 361.62 101.944 361.39L102.754 362.71C102.524 362.98 102.209 363.225 101.809 363.445C101.419 363.665 100.979 363.84 100.489 363.97C100.009 364.09 99.5242 364.15 99.0342 364.15ZM104.955 364V353.5H109.425C110.025 353.5 110.575 353.65 111.075 353.95C111.585 354.24 111.99 354.64 112.29 355.15C112.59 355.65 112.74 356.215 112.74 356.845C112.74 357.415 112.59 357.945 112.29 358.435C111.99 358.925 111.59 359.32 111.09 359.62C110.59 359.91 110.035 360.055 109.425 360.055H106.575V364H104.955ZM111.195 364L108.525 359.26L110.19 358.885L113.16 364.015L111.195 364ZM106.575 358.495H109.575C109.865 358.495 110.125 358.425 110.355 358.285C110.585 358.135 110.765 357.935 110.895 357.685C111.025 357.425 111.09 357.14 111.09 356.83C111.09 356.48 111.005 356.175 110.835 355.915C110.675 355.645 110.445 355.435 110.145 355.285C109.855 355.135 109.525 355.06 109.155 355.06H106.575V358.495ZM114.995 364V362.5H116.69V355H114.995V353.5H120.005V355H118.31V362.5H120.005V364H114.995ZM122.548 364V353.5H126.823C127.393 353.5 127.908 353.645 128.368 353.935C128.838 354.215 129.213 354.6 129.493 355.09C129.773 355.58 129.913 356.125 129.913 356.725C129.913 357.325 129.773 357.87 129.493 358.36C129.213 358.85 128.838 359.245 128.368 359.545C127.908 359.835 127.393 359.98 126.823 359.98H124.168V364H122.548ZM124.168 358.42H126.793C127.063 358.42 127.308 358.345 127.528 358.195C127.748 358.035 127.923 357.83 128.053 357.58C128.193 357.32 128.263 357.035 128.263 356.725C128.263 356.415 128.193 356.135 128.053 355.885C127.923 355.635 127.748 355.435 127.528 355.285C127.308 355.135 127.063 355.06 126.793 355.06H124.168V358.42ZM134.049 364V355.06H131.109V353.5H138.699V355.06H135.669V364H134.049Z" fill="white"/>
<rect x="397.929" y="219.077" width="245.836" height="1.67806" fill="#695CB9"/>
<rect x="206.741" y="260.283" width="117.686" height="71.0909" rx="9" fill="white" stroke="#695CB9" stroke-width="2"/>
<rect x="206.67" y="271.362" width="117.828" height="1.85824" fill="#695CB9" stroke="#695CB9" stroke-width="1.85824"/>
<rect x="131.323" y="150.355" width="64.4444" height="58.5712" rx="9.5" stroke="#695CB9"/>
<rect x="139.001" y="142.837" width="64.4444" height="58.5712" rx="9.5" fill="#B6B6F9" stroke="#695CB9"/>
<path d="M167.52 173.69L163.583 163.487C163.466 163.184 163.343 162.834 163.215 162.437C163.087 162.029 162.964 161.597 162.848 161.142C162.603 162.087 162.352 162.875 162.095 163.505L158.158 173.69H167.52ZM174.59 183H171.965C171.662 183 171.417 182.924 171.23 182.772C171.043 182.621 170.903 182.428 170.81 182.195L168.465 176.14H157.213L154.868 182.195C154.798 182.405 154.663 182.592 154.465 182.755C154.267 182.918 154.022 183 153.73 183H151.105L161.133 157.922H164.563L174.59 183ZM186.762 175.02C185.327 175.067 184.102 175.183 183.087 175.37C182.083 175.545 181.261 175.778 180.619 176.07C179.989 176.362 179.528 176.706 179.237 177.102C178.957 177.499 178.817 177.942 178.817 178.432C178.817 178.899 178.892 179.302 179.044 179.64C179.196 179.978 179.4 180.258 179.657 180.48C179.925 180.69 180.234 180.847 180.584 180.952C180.946 181.046 181.331 181.092 181.739 181.092C182.287 181.092 182.789 181.04 183.244 180.935C183.699 180.818 184.125 180.655 184.522 180.445C184.93 180.235 185.315 179.984 185.677 179.692C186.05 179.401 186.412 179.068 186.762 178.695V175.02ZM176.699 167.775C177.679 166.83 178.735 166.124 179.867 165.657C180.998 165.191 182.252 164.957 183.629 164.957C184.621 164.957 185.502 165.121 186.272 165.447C187.042 165.774 187.689 166.229 188.214 166.812C188.739 167.396 189.136 168.102 189.404 168.93C189.672 169.758 189.807 170.668 189.807 171.66V183H188.424C188.121 183 187.887 182.953 187.724 182.86C187.561 182.755 187.432 182.557 187.339 182.265L186.989 180.585C186.522 181.017 186.067 181.402 185.624 181.74C185.181 182.067 184.714 182.347 184.224 182.58C183.734 182.802 183.209 182.971 182.649 183.088C182.101 183.216 181.488 183.28 180.812 183.28C180.123 183.28 179.476 183.187 178.869 183C178.262 182.802 177.732 182.51 177.277 182.125C176.833 181.74 176.477 181.256 176.209 180.672C175.952 180.077 175.824 179.377 175.824 178.572C175.824 177.872 176.017 177.202 176.402 176.56C176.787 175.907 177.411 175.329 178.274 174.827C179.137 174.326 180.263 173.917 181.652 173.602C183.04 173.276 184.743 173.089 186.762 173.042V171.66C186.762 170.283 186.464 169.245 185.869 168.545C185.274 167.833 184.405 167.477 183.262 167.477C182.492 167.477 181.844 167.577 181.319 167.775C180.806 167.962 180.357 168.177 179.972 168.422C179.598 168.656 179.272 168.872 178.992 169.07C178.723 169.257 178.455 169.35 178.187 169.35C177.977 169.35 177.796 169.297 177.644 169.192C177.492 169.076 177.364 168.936 177.259 168.772L176.699 167.775Z" fill="white"/>
<circle cx="613.14" cy="209.428" r="4.9537" fill="#B8D3F0" stroke="#695CB9"/>
<circle cx="638.311" cy="209.428" r="4.9537" stroke="#695CB9"/>
<circle cx="625.726" cy="209.428" r="4.9537" stroke="#695CB9"/>
<rect x="616.077" y="235.857" width="27.688" height="7.55127" rx="3.77564" fill="#F2EEEB"/>
<rect x="554.15" y="236.857" width="55.0541" height="5.55127" rx="2.77564" stroke="#695CB9" stroke-width="2"/>
<rect x="553.311" y="279.648" width="55.0541" height="5.55127" rx="2.77564" stroke="#695CB9" stroke-width="2"/>
<rect x="617.077" y="265.384" width="25.688" height="5.55127" rx="2.77564" stroke="#695CB9" stroke-width="2"/>
<rect x="554.15" y="293.912" width="29.0441" height="5.55127" rx="2.77564" stroke="#695CB9" stroke-width="2"/>
<rect x="631.341" y="293.912" width="10.5855" height="5.55127" rx="2.77564" stroke="#695CB9" stroke-width="2"/>
<rect x="553.15" y="264.384" width="57.0541" height="7.55127" rx="3.77564" fill="#F2EEEB"/>
<rect x="589.229" y="292.912" width="36.0783" height="7.55127" rx="3.77564" fill="#F2EEEB"/>
<rect x="553.15" y="250.122" width="90.6153" height="7.55127" rx="3.77564" fill="#B8D3F0"/>
<rect x="584.194" y="315.565" width="59.5712" height="22.6538" rx="5" fill="#766AC2"/>
<rect x="616.077" y="278.648" width="27.688" height="7.55127" rx="3.77564" fill="#B8D3F0"/>
<path d="M410 313.773H599C601.485 313.773 603.5 315.788 603.5 318.273V395.81C603.5 398.295 601.485 400.31 599 400.31H410C407.515 400.31 405.5 398.295 405.5 395.81V318.273C405.5 315.788 407.515 313.773 410 313.773Z" fill="#B6B6F9" stroke="#695CB9" stroke-width="3"/>
<rect x="419.827" y="324.091" width="73.6737" height="12.2043" stroke="white"/>
<rect x="503.729" y="324.091" width="86.2592" height="12.2043" stroke="white"/>
<rect x="494.45" y="362.886" width="96.4885" height="8.48848" rx="4.24424" fill="#F2EEEB"/>
<rect x="482.254" y="345.284" width="108.235" height="8.48848" rx="4.24424" fill="#F2EEEB"/>
<rect x="419.327" y="345.284" width="52.8589" height="8.48848" rx="4.24424" fill="#F2EEEB"/>
<rect x="418.618" y="381.159" width="67.1224" height="8.57878" rx="4.28939" fill="#F2EEEB"/>
<rect x="491.709" y="381.159" width="23.4929" height="8.57878" rx="4.28939" fill="#F2EEEB"/>
<rect x="523.687" y="381.159" width="67.1224" height="8.48848" rx="4.24424" fill="#F2EEEB"/>
<rect x="418.618" y="362.886" width="66.2834" height="8.48848" rx="4.24424" fill="#F2EEEB"/>
<path fill-rule="evenodd" clip-rule="evenodd" d="M44.0273 129.568H116.528V210.71C116.528 213.541 114.558 215.838 112.133 215.838H48.4223C45.9961 215.838 44.0273 213.54 44.0273 210.71V129.568Z" fill="white" stroke="#695CB9" stroke-width="2.08143"/>
<path fill-rule="evenodd" clip-rule="evenodd" d="M44.0273 125.534C44.0273 122.705 45.9981 120.41 48.4223 120.41H112.133C114.561 120.41 116.528 122.703 116.528 125.534V131.034H44.0273V125.534Z" fill="white" stroke="#695CB9" stroke-width="2.08143"/>
<path d="M50.7752 127.371C51.5552 127.371 52.1875 126.633 52.1875 125.722C52.1875 124.812 51.5552 124.074 50.7752 124.074C49.9951 124.074 49.3628 124.812 49.3628 125.722C49.3628 126.633 49.9951 127.371 50.7752 127.371Z" fill="#695CB9"/>
<path d="M55.4827 127.371C56.2627 127.371 56.8951 126.633 56.8951 125.722C56.8951 124.812 56.2627 124.074 55.4827 124.074C54.7027 124.074 54.0703 124.812 54.0703 125.722C54.0703 126.633 54.7027 127.371 55.4827 127.371Z" fill="#695CB9"/>
<path d="M60.1907 127.371C60.9707 127.371 61.6031 126.633 61.6031 125.722C61.6031 124.812 60.9707 124.074 60.1907 124.074C59.4107 124.074 58.7783 124.812 58.7783 125.722C58.7783 126.633 59.4107 127.371 60.1907 127.371Z" fill="#695CB9"/>
<path d="M55.0124 183.052H53.4423C53.0958 183.052 52.8149 183.38 52.8149 183.784C52.8149 184.189 53.0958 184.517 53.4423 184.517H55.0124C55.3588 184.517 55.6397 184.189 55.6397 183.784C55.6397 183.38 55.3588 183.052 55.0124 183.052Z" fill="#695CB9"/>
<path d="M55.0124 146.419H53.4423C53.0958 146.419 52.8149 146.747 52.8149 147.152C52.8149 147.557 53.0958 147.885 53.4423 147.885H55.0124C55.3588 147.885 55.6397 147.557 55.6397 147.152C55.6397 146.747 55.3588 146.419 55.0124 146.419Z" fill="#695CB9"/>
<path fill-rule="evenodd" clip-rule="evenodd" d="M58.1503 146.419H62.3882C62.7346 146.419 63.0155 146.747 63.0155 147.152C63.0155 147.557 62.7346 147.885 62.3882 147.885H58.1503C57.8038 147.885 57.5229 147.557 57.5229 147.152C57.5229 146.747 57.8038 146.419 58.1503 146.419Z" fill="#695CB9"/>
<path fill-rule="evenodd" clip-rule="evenodd" d="M65.2123 146.419H69.4502C69.7966 146.419 70.0775 146.747 70.0775 147.152C70.0775 147.557 69.7966 147.885 69.4502 147.885H65.2123C64.8658 147.885 64.585 147.557 64.585 147.152C64.585 146.747 64.8658 146.419 65.2123 146.419Z" fill="#695CB9"/>
<path fill-rule="evenodd" clip-rule="evenodd" d="M72.2743 146.419H80.1216C80.468 146.419 80.7489 146.747 80.7489 147.152C80.7489 147.557 80.468 147.885 80.1216 147.885H72.2743C71.9278 147.885 71.647 147.557 71.647 147.152C71.647 146.747 71.9278 146.419 72.2743 146.419Z" fill="#695CB9"/>
<path fill-rule="evenodd" clip-rule="evenodd" d="M82.9452 146.419H94.5588C94.9053 146.419 95.1861 146.747 95.1861 147.152C95.1861 147.557 94.9053 147.885 94.5588 147.885H82.9452C82.5987 147.885 82.3179 147.557 82.3179 147.152C82.3179 146.747 82.5987 146.419 82.9452 146.419Z" fill="#695CB9"/>
<path d="M55.0124 153.746H53.4423C53.0958 153.746 52.8149 154.074 52.8149 154.478C52.8149 154.883 53.0958 155.211 53.4423 155.211H55.0124C55.3588 155.211 55.6397 154.883 55.6397 154.478C55.6397 154.074 55.3588 153.746 55.0124 153.746Z" fill="#695CB9"/>
<path d="M55.0124 161.072H53.4423C53.0958 161.072 52.8149 161.4 52.8149 161.805C52.8149 162.21 53.0958 162.538 53.4423 162.538H55.0124C55.3588 162.538 55.6397 162.21 55.6397 161.805C55.6397 161.4 55.3588 161.072 55.0124 161.072Z" fill="#695CB9"/>
<path d="M55.0124 168.399H53.4423C53.0958 168.399 52.8149 168.727 52.8149 169.132C52.8149 169.536 53.0958 169.864 53.4423 169.864H55.0124C55.3588 169.864 55.6397 169.536 55.6397 169.132C55.6397 168.727 55.3588 168.399 55.0124 168.399Z" fill="#695CB9"/>
<path d="M55.0124 175.726H53.4423C53.0958 175.726 52.8149 176.054 52.8149 176.458C52.8149 176.863 53.0958 177.191 53.4423 177.191H55.0124C55.3588 177.191 55.6397 176.863 55.6397 176.458C55.6397 176.054 55.3588 175.726 55.0124 175.726Z" fill="#695CB9"/>
<path d="M55.0124 190.378H53.4423C53.0958 190.378 52.8149 190.706 52.8149 191.111C52.8149 191.516 53.0958 191.844 53.4423 191.844H55.0124C55.3588 191.844 55.6397 191.516 55.6397 191.111C55.6397 190.706 55.3588 190.378 55.0124 190.378Z" fill="#695CB9"/>
<path d="M55.0124 197.706H53.4423C53.0958 197.706 52.8149 198.034 52.8149 198.438C52.8149 198.843 53.0958 199.171 53.4423 199.171H55.0124C55.3588 199.171 55.6397 198.843 55.6397 198.438C55.6397 198.034 55.3588 197.706 55.0124 197.706Z" fill="#695CB9"/>
<path d="M67.8807 153.746H58.1503C57.8038 153.746 57.5229 154.074 57.5229 154.478C57.5229 154.883 57.8038 155.211 58.1503 155.211H67.8807C68.2272 155.211 68.508 154.883 68.508 154.478C68.508 154.074 68.2272 153.746 67.8807 153.746Z" fill="#695CB9"/>
<path d="M88.2809 153.746H70.704C70.3575 153.746 70.0767 154.074 70.0767 154.478C70.0767 154.883 70.3575 155.211 70.704 155.211H88.2809C88.6274 155.211 88.9083 154.883 88.9083 154.478C88.9083 154.074 88.6274 153.746 88.2809 153.746Z" fill="#695CB9"/>
<path d="M97.6977 153.746H91.1058C90.7594 153.746 90.4785 154.074 90.4785 154.478C90.4785 154.883 90.7594 155.211 91.1058 155.211H97.6977C98.0442 155.211 98.325 154.883 98.325 154.478C98.325 154.074 98.0442 153.746 97.6977 153.746Z" fill="#695CB9"/>
<path d="M64.7421 161.072H58.1503C57.8038 161.072 57.5229 161.4 57.5229 161.805C57.5229 162.21 57.8038 162.538 58.1503 162.538H64.7421C65.0886 162.538 65.3694 162.21 65.3694 161.805C65.3694 161.4 65.0886 161.072 64.7421 161.072Z" fill="#695CB9"/>
<path d="M74.1581 161.072H67.5663C67.2198 161.072 66.939 161.4 66.939 161.805C66.939 162.21 67.2198 162.538 67.5663 162.538H74.1581C74.5046 162.538 74.7855 162.21 74.7855 161.805C74.7855 161.4 74.5046 161.072 74.1581 161.072Z" fill="#695CB9"/>
<path d="M80.4351 161.072H76.9818C76.6353 161.072 76.3545 161.4 76.3545 161.805C76.3545 162.21 76.6353 162.538 76.9818 162.538H80.4351C80.7815 162.538 81.0624 162.21 81.0624 161.805C81.0624 161.4 80.7815 161.072 80.4351 161.072Z" fill="#695CB9"/>
<path d="M72.5886 168.399H58.1503C57.8038 168.399 57.5229 168.727 57.5229 169.132C57.5229 169.536 57.8038 169.864 58.1503 169.864H72.5886C72.9351 169.864 73.2159 169.536 73.2159 169.132C73.2159 168.727 72.9351 168.399 72.5886 168.399Z" fill="#695CB9"/>
<path d="M85.1429 168.399H75.4125C75.066 168.399 74.7852 168.727 74.7852 169.132C74.7852 169.536 75.066 169.864 75.4125 169.864H85.1429C85.4894 169.864 85.7702 169.536 85.7702 169.132C85.7702 168.727 85.4894 168.399 85.1429 168.399Z" fill="#695CB9"/>
<path d="M72.5886 175.726H58.1503C57.8038 175.726 57.5229 176.054 57.5229 176.458C57.5229 176.863 57.8038 177.191 58.1503 177.191H72.5886C72.9351 177.191 73.2159 176.863 73.2159 176.458C73.2159 176.054 72.9351 175.726 72.5886 175.726Z" fill="#695CB9"/>
<path d="M94.5587 175.726H75.4125C75.066 175.726 74.7852 176.054 74.7852 176.458C74.7852 176.863 75.066 177.191 75.4125 177.191H94.5587C94.9052 177.191 95.186 176.863 95.186 176.458C95.186 176.054 94.9052 175.726 94.5587 175.726Z" fill="#695CB9"/>
<path d="M67.8807 183.052H58.1503C57.8038 183.052 57.5229 183.38 57.5229 183.784C57.5229 184.189 57.8038 184.517 58.1503 184.517H67.8807C68.2272 184.517 68.508 184.189 68.508 183.784C68.508 183.38 68.2272 183.052 67.8807 183.052Z" fill="#695CB9"/>
<path d="M80.4344 183.052H70.704C70.3575 183.052 70.0767 183.38 70.0767 183.784C70.0767 184.189 70.3575 184.517 70.704 184.517H80.4344C80.7809 184.517 81.0618 184.189 81.0618 183.784C81.0618 183.38 80.7809 183.052 80.4344 183.052Z" fill="#695CB9"/>
<path d="M88.2817 183.052H83.2592C82.9127 183.052 82.6318 183.38 82.6318 183.784C82.6318 184.189 82.9127 184.517 83.2592 184.517H88.2817C88.6282 184.517 88.909 184.189 88.909 183.784C88.909 183.38 88.6282 183.052 88.2817 183.052Z" fill="#695CB9"/>
<path d="M77.2965 190.378H58.1503C57.8038 190.378 57.5229 190.706 57.5229 191.111C57.5229 191.516 57.8038 191.844 58.1503 191.844H77.2965C77.643 191.844 77.9238 191.516 77.9238 191.111C77.9238 190.706 77.643 190.378 77.2965 190.378Z" fill="#695CB9"/>
<path d="M66.3114 197.706H58.1503C57.8038 197.706 57.5229 198.034 57.5229 198.438C57.5229 198.843 57.8038 199.171 58.1503 199.171H66.3114C66.6579 199.171 66.9387 198.843 66.9387 198.438C66.9387 198.034 66.6579 197.706 66.3114 197.706Z" fill="#695CB9"/>
<rect x="603.259" y="97.6553" width="75.1908" height="65.9615" rx="4" fill="white" stroke="#695CB9" stroke-width="2"/>
<path d="M641.438 109.114H635.766C635.246 109.334 634.969 109.49 634.683 110.24L633.73 115.09L633.7 115.1C632.559 115.504 631.91 115.733 630.569 116.389C628.971 115.322 628.029 114.697 626.379 113.68C626.174 113.554 625.939 113.487 625.699 113.487C625.352 113.487 625.019 113.626 624.775 113.873L621.165 117.519C620.946 117.74 620.811 118.031 620.782 118.341C620.755 118.647 620.833 118.953 621.004 119.208L623.727 123.274C623.087 124.474 622.787 125.155 622.428 126.392C620.505 126.769 619.353 127.003 617.459 127.446C617.139 127.521 616.825 127.647 616.628 127.909C616.454 128.14 616.409 128.446 616.409 128.735V133.453C616.409 133.937 616.414 134.421 616.745 134.773C616.971 135.014 617.353 135.133 617.675 135.204C619.343 135.576 620.445 135.802 622.385 136.135L622.388 136.144C622.813 137.365 623.052 138.052 623.684 139.296C622.615 140.913 621.987 141.87 621 143.415C620.858 143.638 620.783 143.896 620.783 144.16C620.783 144.513 620.917 144.853 621.159 145.108C622.476 146.5 623.39 147.397 624.854 148.696C625.106 148.92 625.447 149.081 625.784 149.07C626.015 149.062 626.211 148.976 626.407 148.853C628.069 147.815 629.001 147.192 630.526 146.138C631.672 146.716 632.334 147.026 633.73 147.437L634.656 152.106C634.731 152.481 634.853 152.839 635.139 153.093C635.419 153.342 635.83 153.413 636.204 153.413H640.987C641.369 153.413 641.755 153.358 642.034 153.097C642.292 152.856 642.426 152.497 642.495 152.151L643.43 147.437C644.72 147.031 645.406 146.725 646.591 146.094C648.307 147.348 649.281 148.043 651.268 149.126C651.571 149.137 651.771 149.103 652.221 148.909C653.867 147.315 654.785 146.359 656.421 144.579V143.756L653.476 139.296C654.055 138.084 654.344 137.394 654.776 136.135L659.612 135.152C659.929 135.087 660.215 134.917 660.422 134.668C660.635 134.413 660.751 134.091 660.751 133.758V128.776C660.751 128.44 660.628 128.114 660.406 127.862C660.208 127.638 659.944 127.484 659.653 127.423L654.732 126.392C654.32 125.205 654.051 124.516 653.476 123.231L656.055 119.343C656.267 119.024 656.436 118.63 656.366 118.254C656.313 117.973 656.15 117.752 655.959 117.54C654.622 116.058 653.733 115.137 652.247 113.789C652.06 113.619 651.867 113.497 651.616 113.466C651.329 113.43 651.009 113.529 650.767 113.688L646.591 116.432C645.478 115.849 644.726 115.552 643.43 115.09L642.478 110.24C642.26 109.569 641.989 109.375 641.438 109.114Z" stroke="#A094EB"/>
<path d="M646.92 107.286H641.247C640.728 107.507 640.451 107.662 640.164 108.412L639.212 113.262L639.182 113.273C638.04 113.676 637.391 113.905 636.051 114.561C634.452 113.495 633.511 112.87 631.86 111.852C631.656 111.726 631.42 111.66 631.18 111.66C630.833 111.66 630.5 111.799 630.256 112.045L626.646 115.691C626.427 115.912 626.292 116.203 626.264 116.513C626.236 116.819 626.314 117.125 626.485 117.381L629.209 121.446C628.569 122.647 628.269 123.327 627.91 124.564C625.987 124.941 624.834 125.175 622.94 125.619C622.621 125.693 622.306 125.819 622.109 126.082C621.936 126.313 621.891 126.618 621.891 126.907V131.626C621.891 132.109 621.896 132.593 622.227 132.945C622.453 133.186 622.834 133.305 623.157 133.377C624.824 133.748 625.926 133.974 627.866 134.307L627.87 134.316C628.294 135.537 628.533 136.224 629.166 137.468C628.096 139.085 627.469 140.042 626.482 141.588C626.34 141.81 626.264 142.069 626.264 142.333C626.264 142.685 626.399 143.025 626.641 143.281C627.958 144.673 628.872 145.57 630.335 146.868C630.588 147.092 630.929 147.253 631.266 147.242C631.497 147.234 631.692 147.148 631.888 147.026C633.55 145.987 634.482 145.364 636.007 144.31C637.153 144.888 637.816 145.199 639.212 145.609L640.138 150.278C640.212 150.653 640.335 151.012 640.621 151.266C640.9 151.514 641.311 151.585 641.685 151.585H646.468C646.85 151.585 647.236 151.53 647.516 151.269C647.773 151.029 647.908 150.67 647.977 150.324L648.912 145.609C650.201 145.203 650.888 144.897 652.073 144.267C653.788 145.521 654.762 146.215 656.749 147.298C657.052 147.31 657.252 147.275 657.702 147.082C659.348 145.487 660.267 144.532 661.903 142.751V141.928L658.958 137.468C659.536 136.256 659.826 135.566 660.257 134.307L665.094 133.324C665.411 133.26 665.696 133.089 665.903 132.841C666.116 132.585 666.233 132.263 666.233 131.93V126.949C666.233 126.612 666.11 126.287 665.887 126.034C665.69 125.811 665.426 125.657 665.134 125.596L660.214 124.564C659.802 123.377 659.532 122.688 658.958 121.403L661.536 117.516C661.748 117.196 661.918 116.803 661.847 116.426C661.794 116.145 661.632 115.924 661.44 115.712C660.104 114.23 659.214 113.309 657.729 111.961C657.541 111.792 657.349 111.669 657.098 111.638C656.81 111.603 656.491 111.701 656.248 111.861L652.073 114.604C650.96 114.021 650.207 113.724 648.912 113.262L647.959 108.412C647.741 107.741 647.47 107.548 646.92 107.286Z" fill="#8480EE"/>
<circle cx="644.231" cy="129.627" r="8.67035" stroke="white" stroke-width="5"/>
<circle cx="644.275" cy="129.67" r="2.5" stroke="white" stroke-width="1.39545"/>
<path d="M2 399.526V331.188H58.6031V283.951H186.555" stroke="#B6B6F9" stroke-width="4" stroke-dasharray="5 5"/>
<path d="M250.509 287.605L236.805 300.853L250.509 314.558" stroke="#695CB9" stroke-width="3"/>
<path d="M280.659 287.605L294.364 300.853L280.659 314.558" stroke="#695CB9" stroke-width="3"/>
<path d="M276.091 279.383L255.534 321.41" stroke="#695CB9" stroke-width="3"/>
<circle cx="342.329" cy="267.049" r="7.26591" fill="#B8D3F0" stroke="#695CB9"/>
<circle cx="342.329" cy="296.285" r="7.26591" fill="#B6B6F9" stroke="#695CB9"/>
<circle cx="342.329" cy="329.176" r="7.26591" fill="#B6B6F9" stroke="#695CB9"/>
<circle cx="342.329" cy="361.153" r="7.26591" fill="white" stroke="#695CB9"/>
<path d="M34.8911 399.432H669.868L669.759 399.98C669.291 402.318 667.239 404 664.856 404H39.4593C36.9363 404 34.8911 401.955 34.8911 399.432V399.432Z" fill="#695CB9"/>
<rect x="113.55" y="223.187" width="60.1273" height="48.25" rx="9" fill="white" stroke="#695CB9" stroke-width="2"/>
<path d="M129.961 248.815C130.46 243.709 131.383 241.74 133.735 239.207C136.566 236.466 138.24 235.67 141.205 234.932" stroke="#695CB9" stroke-width="1.5"/>
<path d="M157.8 248.815C157.301 243.709 156.378 241.74 154.026 239.207C151.196 236.466 149.329 235.67 146.364 234.932" stroke="#695CB9" stroke-width="1.5"/>
<path d="M134.813 256.227L143.9 242.423L152.871 256.227C150.616 259.374 149.559 261.327 148.443 265.522C150.157 267.486 150.702 268.497 150.792 270.11H137.008C137.2 267.952 137.918 267.044 139.395 265.522C138.178 261.985 137.084 259.935 134.813 256.227Z" fill="#B6B6F9"/>
<path d="M143.9 242.423L134.813 256.227C137.084 259.935 138.178 261.985 139.395 265.522M143.9 242.423L152.871 256.227C150.616 259.374 149.559 261.327 148.443 265.522M143.9 242.423V253.6M148.443 265.522C145.133 264.496 143.17 264.396 139.395 265.522M148.443 265.522C150.157 267.486 150.702 268.497 150.792 270.11H137.008C137.2 267.952 137.918 267.044 139.395 265.522" stroke="#695CB9" stroke-width="1.5"/>
<path d="M131.752 251.443C131.752 252.493 130.92 253.321 129.923 253.321C128.925 253.321 128.093 252.493 128.093 251.443C128.093 250.393 128.925 249.565 129.923 249.565C130.92 249.565 131.752 250.393 131.752 251.443Z" stroke="#695CB9" stroke-width="1.5"/>
<path d="M145.691 256.227C145.691 257.277 144.859 258.105 143.861 258.105C142.863 258.105 142.031 257.277 142.031 256.227C142.031 255.177 142.863 254.35 143.861 254.35C144.859 254.35 145.691 255.177 145.691 256.227Z" stroke="#695CB9" stroke-width="1.5"/>
<path d="M129.922 234.894H141.242" stroke="#695CB9" stroke-width="1.5"/>
<path d="M145.614 235.05C145.614 236.1 144.782 236.927 143.784 236.927C142.786 236.927 141.954 236.1 141.954 235.05C141.954 234 142.786 233.172 143.784 233.172C144.782 233.172 145.614 234 145.614 235.05Z" stroke="#695CB9" stroke-width="1.5"/>
<path d="M159.629 251.443C159.629 252.493 158.797 253.321 157.8 253.321C156.802 253.321 155.97 252.493 155.97 251.443C155.97 250.393 156.802 249.565 157.8 249.565C158.797 249.565 159.629 250.393 159.629 251.443Z" stroke="#695CB9" stroke-width="1.5"/>
<path d="M140.356 235.511C134.454 237.108 131.275 240.206 129.922 248.815M146.747 235.502C152.986 237.334 156.155 239.984 157.838 248.815M126.34 233.172H128.961C129.099 233.172 129.211 233.284 129.211 233.422V234.775V236.128C129.211 236.266 129.099 236.378 128.961 236.378H126.34C126.202 236.378 126.09 236.266 126.09 236.128V233.422C126.09 233.284 126.202 233.172 126.34 233.172Z" stroke="#695CB9" stroke-width="1.5"/>
<mask id="path-182-inside-3_423_35" fill="white">
<rect x="157.838" y="232.422" width="4.62049" height="4.70606" rx="1"/>
</mask>
<rect x="157.838" y="232.422" width="4.62049" height="4.70606" rx="1" stroke="#695CB9" stroke-width="3" mask="url(#path-182-inside-3_423_35)"/>
<path d="M146.364 234.932H157.877" stroke="#695CB9" stroke-width="1.5"/>
<defs>
<filter id="filter0_d_423_35" x="82.3896" y="309.562" width="112.879" height="11.3296" filterUnits="userSpaceOnUse" color-interpolation-filters="sRGB">
<feFlood flood-opacity="0" result="BackgroundImageFix"/>
<feColorMatrix in="SourceAlpha" type="matrix" values="0 0 0 0 0 0 0 0 0 0 0 0 0 0 0 0 0 0 127 0" result="hardAlpha"/>
<feOffset dy="2"/>
<feGaussianBlur stdDeviation="2"/>
<feComposite in2="hardAlpha" operator="out"/>
<feColorMatrix type="matrix" values="0 0 0 0 0 0 0 0 0 0 0 0 0 0 0 0 0 0 0.25 0"/>
<feBlend mode="normal" in2="BackgroundImageFix" result="effect1_dropShadow_423_35"/>
<feBlend mode="normal" in="SourceGraphic" in2="effect1_dropShadow_423_35" result="shape"/>
</filter>
<filter id="filter1_d_423_35" x="82.3896" y="319.551" width="112.879" height="11.3296" filterUnits="userSpaceOnUse" color-interpolation-filters="sRGB">
<feFlood flood-opacity="0" result="BackgroundImageFix"/>
<feColorMatrix in="SourceAlpha" type="matrix" values="0 0 0 0 0 0 0 0 0 0 0 0 0 0 0 0 0 0 127 0" result="hardAlpha"/>
<feOffset dy="2"/>
<feGaussianBlur stdDeviation="2"/>
<feComposite in2="hardAlpha" operator="out"/>
<feColorMatrix type="matrix" values="0 0 0 0 0 0 0 0 0 0 0 0 0 0 0 0 0 0 0.25 0"/>
<feBlend mode="normal" in2="BackgroundImageFix" result="effect1_dropShadow_423_35"/>
<feBlend mode="normal" in="SourceGraphic" in2="effect1_dropShadow_423_35" result="shape"/>
</filter>
<linearGradient id="paint0_linear_423_35" x1="525.668" y1="221.682" x2="208.958" y2="158.06" gradientUnits="userSpaceOnUse">
<stop stop-color="#746FEE"/>
<stop offset="0.994692" stop-color="#9B98ED"/>
<stop offset="0.994792" stop-color="#746FEE" stop-opacity="0"/>
</linearGradient>
</defs>
</svg>
