<svg width="150" height="175" viewBox="0 0 150 175" fill="none" xmlns="http://www.w3.org/2000/svg">
<path d="M120.517 115.5C130.517 114 139.54 116.29 148.517 121L148.517 93H129.517V62.4994C129.517 56.629 130.977 49.358 136.836 48.9852C137.78 48.9251 138.829 48.9413 140.017 49V22C128.715 21.36 124.054 23.7626 116.017 28.5C109.706 34.2234 106.381 38.2791 103.712 46.0993C102.838 48.6602 102.517 51.3717 102.517 54.0777V98.5C100.019 98.8069 97.785 99.9969 94.5166 101.5V1C89.2733 1.46856 86.069 1.92439 80.5166 5C74.5333 8.3143 71.558 11.6382 68.914 18.7894C67.8942 21.5477 67.5166 24.4944 67.5166 27.4351V69C63.6295 67.1229 61.6012 66.3425 58.0166 65C53.5166 63.5 44.5166 62.5 37.5166 64.5C27.0161 67.5 21.008 71.5153 14.0166 78C7.5166 84 3.82879 89.5927 1.51671 101C0.826152 106.834 0.829375 110.35 1.51671 117C3.16079 125.735 5.05255 129.906 10.0167 137C17.5045 145.819 23.0283 149.531 30.0574 151.995C35.8997 154.043 42.1368 154.912 48.3182 154.568C50.2109 154.463 52.2435 154.274 55.0167 154C59.6003 153.07 62.0359 151.877 66.0167 150L76.5167 140C95.3004 123.386 104.517 118.5 120.517 115.5Z" fill="#9084DD" stroke="#9084DD"/>
<path d="M94.5166 155V133.5C85.2519 140.309 79.9892 145.222 70.5166 155H94.5166Z" fill="#695CB9" stroke="#695CB9"/>
<path d="M129.017 121.5C117.784 121.725 112.374 123.765 102.517 129V174.5H129.017V121.5Z" fill="#695CB9" stroke="#695CB9"/>
<circle cx="45.5" cy="109.5" r="18.5" fill="white"/>
</svg>
