<svg width="19" height="18" viewBox="0 0 19 18" fill="none" xmlns="http://www.w3.org/2000/svg">
<path d="M6.59366 0.402511L1.11483 4.55505C0.587198 4.95495 0.640542 5.76411 1.21611 6.09129L6.53808 9.11652C6.88691 9.31481 7.32421 9.26281 7.61681 8.98824C7.89724 8.72509 7.98328 8.31471 7.83218 7.96108L7.21192 6.50943H14.2789C14.727 6.50943 15.2026 6.47472 15.5261 6.7847C15.8265 7.07245 15.8264 7.57389 15.8263 7.99289L15.8263 8.01531V12.9096C15.8263 13.3959 15.8691 13.9776 15.5138 14.3096C15.1876 14.6144 14.6944 14.566 14.2479 14.566H6.61576C6.30191 14.566 5.99752 14.6735 5.75318 14.8704C5.42957 15.1313 5.24142 15.5247 5.24142 15.9404V16.5793C5.24142 17.012 5.43866 17.4212 5.77721 17.6907C6.02871 17.891 6.34067 18 6.66214 18H14.687C15.7986 18 16.8673 17.5708 17.6702 16.8019C18.5196 15.9883 19 14.8632 19 13.687V7.42105C19 6.04161 18.3422 4.74485 17.2292 3.92997C16.4876 3.38702 15.5924 3.09434 14.6733 3.09434H7.21192L7.87337 1.36235C7.99943 1.03227 7.90324 0.658569 7.63348 0.430371C7.33613 0.178829 6.90406 0.167252 6.59366 0.402511Z" fill="white"/>
</svg>
